# Blender v2.82 (sub 7) OBJ File: 'rowanlogo.blend'
# www.blender.org
mtllib rowanlogo_t.mtl
o lt_path16027.006
v -4.356126 38.826515 4.766351
v -4.238120 38.915497 4.766351
v -4.260885 38.822945 4.858902
v -4.497007 38.334068 4.766351
v -4.397299 38.346111 4.858902
v -4.429968 38.248287 4.858902
v -4.429936 38.247166 4.858902
v -4.057867 38.162941 4.858902
v -4.461459 38.121895 4.858902
v -4.547931 38.156113 4.766351
v -7.483363 27.900728 4.766352
v -7.386072 27.904303 4.858902
v -7.416280 27.811752 4.858902
v -7.416280 27.811752 4.766352
v 1.652341 27.811752 4.766352
v 1.744892 27.811752 4.858902
v 1.837443 27.811752 4.858902
v 1.814671 27.719202 4.858902
v 1.719427 27.722775 4.766352
v -6.174314 0.140661 4.766354
v -5.955266 0.569684 4.858904
v -6.023619 0.144233 4.858904
v -6.107228 0.051683 4.766354
v 4.887887 0.051683 4.766354
v 4.910663 0.144233 4.858904
v 5.005908 0.140659 4.766354
v 12.682446 27.293659 4.858902
v 12.750865 27.719202 4.858902
v 12.927024 27.811752 4.858902
v 13.019574 27.811752 4.766352
v 12.901554 27.722776 4.766352
v 21.690969 27.904303 4.858902
v 22.121174 27.934952 4.858902
v 22.207645 27.900730 4.766352
v 22.089632 27.811752 4.766352
v 22.089632 27.811752 4.858902
v 22.089632 27.811752 4.858902
v 25.236307 38.820152 4.858902
v 25.267309 38.915497 4.858902
v 25.267309 38.915497 4.766351
v 25.334396 38.826515 4.766351
v 14.879520 38.822956 4.858902
v 14.784895 38.915497 4.858902
v 14.784895 38.915497 4.766351
v 14.969995 38.915497 4.766351
v 5.625314 38.822945 4.858902
v 2.818222 38.822945 4.858902
v 5.529738 38.915497 4.766351
v 5.714839 38.915497 4.766351
v -4.356126 38.826515 -4.303603
v -4.260885 38.822945 -4.396153
v -4.238120 38.915497 -4.303603
v -4.497007 38.334068 -4.303603
v -4.547931 38.156113 -4.303603
v -4.461459 38.121895 -4.396153
v -4.057867 38.162941 -4.396153
v -4.429968 38.248287 -4.396153
v -4.430114 38.251194 -4.396153
v -4.397299 38.346111 -4.396153
v 5.625314 38.822945 -4.396153
v 5.714839 38.915497 -4.303603
v 5.529738 38.915497 -4.303603
v 2.818222 38.822945 -4.396153
v 14.879520 38.822956 -4.396153
v 14.969995 38.915497 -4.303603
v 14.784895 38.915497 -4.303603
v 14.784950 38.912300 -4.396153
v 25.236307 38.820152 -4.396153
v 25.334396 38.826515 -4.303603
v 25.267309 38.915497 -4.303603
v 25.267332 38.913422 -4.396153
v 21.690969 27.904303 -4.396152
v 22.089632 27.811752 -4.396152
v 22.089632 27.811752 -4.396152
v 22.089632 27.811752 -4.303602
v 22.207645 27.900730 -4.303602
v 22.121174 27.934952 -4.396152
v -7.483363 27.900728 -4.303602
v -7.416280 27.811752 -4.303602
v -7.416280 27.811752 -4.396152
v -7.386072 27.904303 -4.396152
v 1.652341 27.811752 -4.303602
v 1.719427 27.722775 -4.303602
v 1.814671 27.719202 -4.396152
v 1.837443 27.811752 -4.396152
v 1.744892 27.811752 -4.396152
v -6.174314 0.140660 -4.303600
v -6.107228 0.051682 -4.303600
v -6.023619 0.144232 -4.396151
v -5.955266 0.569683 -4.396151
v 12.682446 27.293659 -4.396152
v 12.901554 27.722776 -4.303602
v 13.019574 27.811752 -4.303602
v 12.927024 27.811752 -4.396152
v 12.750865 27.719202 -4.396152
v 4.887887 0.051682 -4.303600
v 5.005908 0.140659 -4.303600
v 4.910663 0.144232 -4.396151
vt 0.088977 0.879667
vt 0.088977 0.879667
vt 0.069305 0.879667
vt 0.069305 0.879667
vt 0.443973 0.205507
vt 0.522182 0.207839
vt 0.564256 0.208205
vt 0.445480 0.205165
vt 0.564130 0.207827
vt 0.551513 0.163739
vt 0.432000 0.163615
vt 0.443845 0.204999
vt 0.549770 0.163615
vt 0.088977 0.872183
vt 0.088977 0.771106
vt 0.069305 0.771106
vt 0.069305 0.872183
vt 0.088977 0.770229
vt 0.088977 0.770229
vt 0.069305 0.770229
vt 0.069305 0.770229
vt 0.437518 0.051179
vt 0.513283 0.161142
vt 0.481805 0.051179
vt 0.088977 0.769352
vt 0.088977 0.497503
vt 0.069305 0.497503
vt 0.069305 0.769352
vt 0.088977 0.496626
vt 0.088977 0.496626
vt 0.069305 0.496626
vt 0.069305 0.496626
vt 0.444127 0.205034
vt 0.521274 0.207689
vt 0.484499 0.207330
vt 0.444128 0.205023
vt 0.563361 0.207693
vt 0.521654 0.207330
vt 0.445622 0.204680
vt 0.550729 0.163615
vt 0.563236 0.207319
vt 0.432259 0.163492
vt 0.549002 0.163492
vt 0.444001 0.204515
vt 0.468919 0.163121
vt 0.550602 0.163121
vt 0.432138 0.163121
vt 0.513815 0.163121
vt 0.550602 0.163121
vt 0.469291 0.163121
vt 0.437729 0.052038
vt 0.481630 0.052038
vt 0.512833 0.161041
vt 0.438004 0.053746
vt 0.513108 0.162749
vt 0.469200 0.162749
vt 0.444415 0.205736
vt 0.445005 0.207877
vt 0.473330 0.207839
vt 0.443973 0.205511
vt 0.484700 0.207839
vt 0.521799 0.208201
vt 0.444566 0.205246
vt 0.473229 0.207330
vt 0.445151 0.207368
vt 0.088977 0.879667
vt 0.088977 0.879667
vt 0.069305 0.879667
vt 0.069305 0.879667
vt 0.088977 0.879667
vt 0.088977 0.879667
vt 0.069305 0.879667
vt 0.069305 0.879667
vt 0.469017 0.163391
vt 0.431912 0.163391
vt 0.551419 0.163391
vt 0.514308 0.163391
vt 0.469392 0.163391
vt 0.551419 0.163391
vt 0.437795 0.052902
vt 0.469266 0.162865
vt 0.513560 0.162865
vt 0.088977 0.771106
vt 0.088977 0.878790
vt 0.069305 0.878790
vt 0.069305 0.771106
vt 0.088977 0.497503
vt 0.088977 0.769352
vt 0.069305 0.769352
vt 0.069305 0.497503
vt 0.088977 0.770229
vt 0.088977 0.770229
vt 0.069305 0.770229
vt 0.069305 0.770229
vt 0.088797 0.879049
vt 0.089178 0.879006
vt 0.088797 0.873678
vt 0.089178 0.874306
vt 0.089178 0.873330
vt 0.089178 0.873320
vt 0.089178 0.873522
vt 0.089178 0.873060
vt 0.088977 0.873060
vt 0.089178 0.771392
vt 0.089178 0.770470
vt 0.089178 0.770229
vt 0.089178 0.770229
vt 0.089178 0.770229
vt 0.088977 0.770229
vt 0.089178 0.501982
vt 0.089178 0.497928
vt 0.089178 0.496626
vt 0.088977 0.496626
vt 0.513869 0.162653
vt 0.514274 0.163240
vt 0.514274 0.163240
vt 0.514171 0.162880
vt 0.551377 0.163390
vt 0.551760 0.163240
vt 0.551385 0.163240
vt 0.551385 0.163240
vt 0.551385 0.163240
vt 0.564256 0.208205
vt 0.564527 0.207853
vt 0.521799 0.208201
vt 0.522549 0.208214
vt 0.473355 0.207465
vt 0.484314 0.208189
vt 0.485062 0.208214
vt 0.069485 0.879049
vt 0.069104 0.879006
vt 0.069485 0.873678
vt 0.069305 0.873060
vt 0.069104 0.873060
vt 0.069104 0.873522
vt 0.069104 0.873330
vt 0.069104 0.873356
vt 0.069104 0.874306
vt 0.484859 0.207702
vt 0.484117 0.207677
vt 0.473253 0.206959
vt 0.522017 0.207702
vt 0.521275 0.207689
vt 0.563630 0.207344
vt 0.563361 0.207693
vt 0.550602 0.163121
vt 0.550941 0.163121
vt 0.550594 0.163269
vt 0.069104 0.770470
vt 0.069104 0.771392
vt 0.069305 0.770229
vt 0.069104 0.770229
vt 0.069104 0.770229
vt 0.069104 0.770229
vt 0.069104 0.497928
vt 0.069104 0.501982
vt 0.513713 0.162764
vt 0.513815 0.163121
vt 0.513414 0.162538
vt 0.069305 0.496626
vt 0.069104 0.496626
vt 0.443702 0.205859
vt 0.444272 0.207853
vt 0.089178 0.879667
vt 0.089178 0.879667
vt 0.551863 0.163600
vt 0.431606 0.163600
vt 0.443495 0.205138
vt 0.468642 0.163391
vt 0.431912 0.163391
vt 0.436908 0.051164
vt 0.468880 0.162880
vt 0.551419 0.163391
vt 0.514683 0.163391
vt 0.481713 0.050804
vt 0.437180 0.050804
vt 0.482191 0.051164
vt 0.444898 0.207702
vt 0.069104 0.879667
vt 0.069104 0.879667
vt 0.069104 0.879667
vt 0.069104 0.879667
vt 0.069104 0.878476
vt 0.069104 0.771192
vt 0.069104 0.872096
vt 0.069104 0.770229
vt 0.069104 0.769568
vt 0.069104 0.770229
vt 0.069104 0.770229
vt 0.069104 0.496626
vt 0.069104 0.764871
vt 0.069104 0.497287
vn 0.0000 -1.0000 0.0000
vn 0.0000 0.0000 -1.0000
vn 0.9614 -0.2752 0.0000
vn 0.0000 1.0000 0.0000
vn 0.9614 -0.2751 0.0000
vn 0.0000 0.0000 1.0000
vn -0.9614 0.2751 0.0000
vn -0.9614 0.2752 0.0000
vn 0.5047 -0.6693 -0.5452
vn 0.3910 -0.1119 -0.9136
vn 0.8698 0.1767 -0.4606
vn 0.5098 0.3844 -0.7697
vn 0.5234 -0.0013 -0.8521
vn -0.5047 0.6694 -0.5452
vn -0.5221 0.3118 -0.7938
vn -0.2882 0.2031 -0.9358
vn -0.8683 -0.1700 -0.4660
vn -0.2660 -0.8039 -0.5319
vn 0.0000 -0.7071 -0.7071
vn 0.5047 -0.6693 0.5452
vn 0.3899 -0.1116 0.9141
vn 0.0000 -0.7071 0.7071
vn -0.2562 -0.8018 0.5399
vn -0.8673 -0.1716 0.4673
vn -0.2882 0.2031 0.9358
vn 0.8698 0.1767 0.4606
vn 0.5098 0.3843 0.7697
vn 0.5234 -0.0013 0.8521
vn -0.5221 0.3118 0.7938
vn -0.5047 0.6694 0.5452
vn 0.6798 -0.1945 -0.7071
vn 0.0045 -0.8953 -0.4454
vn 0.0040 -0.8952 -0.4456
vn -0.6798 0.1946 -0.7071
vn 0.6798 -0.1946 -0.7071
vn 0.0000 0.7071 -0.7071
vn 0.6798 -0.1945 0.7071
vn 0.0044 -0.8891 0.4578
vn 0.0039 -0.8912 0.4536
vn -0.6798 0.1945 0.7071
vn 0.6798 -0.1946 0.7071
vn 0.0000 0.7071 0.7071
vn -0.6798 0.1946 0.7071
vn 0.6021 -0.7984 -0.0000
vn -0.7985 -0.6020 0.0000
vn -0.6020 0.7985 0.0000
vn 0.7985 0.6020 0.0000
vn 0.9614 -0.2750 0.0000
usemtl Material.004
s off
f 48/1/1 2/2/1 52/3/1 62/4/1
f 7/5/2 42/6/2 39/7/2
f 8/8/2 38/9/2 33/10/2
f 12/11/2 9/12/2 32/13/2
f 10/14/3 11/15/3 78/16/3 54/17/3
f 14/18/4 15/19/4 82/20/4 79/21/4
f 22/22/2 27/23/2 25/24/2
f 19/25/5 20/26/5 87/27/5 83/28/5
f 23/29/4 24/30/4 96/31/4 88/32/4
f 58/33/6 67/34/6 60/35/6
f 57/36/6 71/37/6 64/38/6
f 56/39/6 77/40/6 68/41/6
f 81/42/6 72/43/6 55/44/6
f 86/45/6 73/46/6 80/47/6
f 94/48/6 74/49/6 85/50/6
f 89/51/6 98/52/6 91/53/6
f 90/54/6 95/55/6 84/56/6
f 5/57/2 3/58/2 47/59/2
f 6/60/2 46/61/2 43/62/2
f 59/63/6 63/64/6 51/65/6
f 44/66/1 49/67/1 61/68/1 66/69/1
f 40/70/1 45/71/1 65/72/1 70/73/1
f 16/74/2 13/75/2 37/76/2
f 29/77/6 17/78/6 36/79/6
f 21/80/2 18/81/2 28/82/2
f 34/83/7 41/84/7 69/85/7 76/86/7
f 26/87/8 31/88/8 92/89/8 97/90/8
f 30/91/4 35/92/4 75/93/4 93/94/4
f 1/95/9 2/2/9 3/96/9
f 4/97/10 5/98/10 6/99/10 7/100/10 8/101/10 9/102/10 10/103/10
f 11/15/11 12/104/11 13/105/11 14/18/11
f 15/19/12 16/106/12 17/107/12 18/108/12 19/109/12
f 20/26/13 21/110/13 22/111/13 23/29/13
f 24/30/14 25/112/14 26/113/14
f 27/23/15 28/114/15 29/115/15 30/116/15 31/117/15
f 32/13/16 33/118/16 34/119/16 35/120/16 36/121/16 37/122/16
f 38/9/17 39/7/17 40/123/17 41/124/17
f 42/6/18 43/62/18 44/125/18 45/126/18
f 46/61/19 47/127/19 48/128/19 49/129/19
f 50/130/20 51/131/20 52/3/20
f 53/132/21 54/133/21 55/134/21 56/135/21 57/136/21 58/137/21 59/138/21
f 60/35/22 61/139/22 62/140/22 63/141/22
f 64/38/23 65/142/23 66/143/23 67/34/23
f 68/41/24 69/144/24 70/145/24 71/37/24
f 72/43/25 73/46/25 74/49/25 75/146/25 76/147/25 77/148/25
f 78/16/26 79/21/26 80/149/26 81/150/26
f 82/20/27 83/151/27 84/152/27 85/153/27 86/154/27
f 87/27/28 88/32/28 89/155/28 90/156/28
f 91/53/29 92/157/29 93/158/29 94/48/29 95/159/29
f 96/31/30 97/160/30 98/161/30
f 3/58/31 5/57/31 4/162/31 1/163/31
f 5/57/2 47/59/2 46/61/2 6/60/2
f 2/2/19 48/1/19 47/164/19 3/165/19
f 6/60/2 43/62/2 42/6/2 7/5/2
f 43/62/32 46/61/32 49/129/32 44/125/32
f 7/5/2 39/7/2 38/9/2 8/8/2
f 39/7/33 42/6/33 45/126/33 40/123/33
f 8/8/2 33/10/2 32/13/2 9/12/2
f 33/10/34 38/9/34 41/124/34 34/166/34
f 9/12/35 12/11/35 11/167/35 10/168/35
f 12/11/2 32/13/2 37/76/2 13/75/2
f 13/75/4 16/74/4 15/169/4 14/170/4
f 16/74/6 37/76/6 36/79/6 17/78/6
f 18/81/35 21/80/35 20/171/35 19/172/35
f 21/80/2 28/82/2 27/23/2 22/22/2
f 17/78/2 29/77/2 28/82/2 18/81/2
f 29/77/4 36/79/4 35/173/4 30/174/4
f 22/22/36 25/24/36 24/175/36 23/176/36
f 25/24/34 27/23/34 31/117/34 26/177/34
f 50/130/37 53/132/37 59/138/37 51/131/37
f 58/33/6 60/35/6 63/64/6 59/63/6
f 51/65/22 63/64/22 62/140/22 52/178/22
f 57/36/6 64/38/6 67/34/6 58/33/6
f 66/69/38 61/68/38 60/179/38 67/180/38
f 56/39/6 68/41/6 71/37/6 57/36/6
f 70/73/39 65/72/39 64/181/39 71/182/39
f 55/44/6 72/43/6 77/40/6 56/39/6
f 76/86/40 69/85/40 68/183/40 77/184/40
f 54/17/41 78/16/41 81/150/41 55/185/41
f 80/47/6 73/46/6 72/43/6 81/42/6
f 79/21/4 82/20/4 86/154/4 80/186/4
f 85/50/6 74/49/6 73/46/6 86/45/6
f 83/28/41 87/27/41 90/156/41 84/187/41
f 89/51/6 91/53/6 95/55/6 90/54/6
f 84/56/6 95/55/6 94/48/6 85/50/6
f 93/94/4 75/93/4 74/188/4 94/189/4
f 88/32/42 96/31/42 98/161/42 89/190/42
f 97/90/43 92/89/43 91/191/43 98/192/43
f 10/14/5 54/17/5 53/132/5 4/97/5
f 52/3/44 2/2/44 1/95/44 50/130/44
f 61/68/1 49/67/1 48/1/1 62/4/1
f 65/72/1 45/71/1 44/66/1 66/69/1
f 69/85/45 41/84/45 40/70/45 70/73/45
f 75/93/46 35/92/46 34/83/46 76/86/46
f 14/18/47 79/21/47 78/16/47 11/15/47
f 19/25/47 83/28/47 82/20/47 15/19/47
f 23/29/47 88/32/47 87/27/47 20/26/47
f 92/89/46 31/88/46 30/91/46 93/94/46
f 26/87/46 97/90/46 96/31/46 24/30/46
f 1/95/48 4/97/48 53/132/48 50/130/48
