# Blender v2.82 (sub 7) OBJ File: 'rowanlogo.blend'
# www.blender.org
mtllib rowanlogo_e.mtl
o le_path16027.003
v -4.442752 38.741619 4.766351
v -4.324744 38.830597 4.766351
v -4.347510 38.738045 4.858902
v -4.483934 38.261215 4.858902
v -0.363306 38.348019 4.858902
v -4.144506 38.078041 4.858902
v -4.548094 38.036991 4.858902
v -4.634566 38.071217 4.766351
v -4.583643 38.249172 4.766351
v 2.731594 38.738045 4.858902
v 5.443114 38.830597 4.766351
v 5.628215 38.830597 4.766351
v 5.538690 38.738045 4.858902
v -4.324744 38.830597 -4.303603
v -4.442752 38.741619 -4.303603
v -4.347510 38.738045 -4.396153
v -4.583643 38.249172 -4.303603
v -4.634566 38.071217 -4.303603
v -4.548094 38.036991 -4.396153
v -4.144506 38.078041 -4.396153
v -0.363306 38.348019 -4.396153
v -4.483934 38.261215 -4.396153
v 5.443114 38.830597 -4.303603
v 2.731594 38.738045 -4.396153
v 5.538690 38.738045 -4.396153
v 5.628215 38.830597 -4.303603
v 25.181137 38.830597 -4.303603
v 25.181160 38.828522 -4.396153
v 25.150131 38.735252 -4.396153
v 25.248220 38.741623 -4.303603
v 22.034525 27.850052 -4.396152
v 21.547752 27.841503 -4.396152
v 17.489759 27.819405 -4.396152
v 22.002977 27.726854 -4.303602
v 22.120995 27.815830 -4.303602
v 25.248220 38.741623 4.766351
v 25.150131 38.735252 4.858902
v 25.181137 38.830597 4.858902
v 25.181137 38.830597 4.766351
v 22.120995 27.815830 4.766352
v 22.002977 27.726854 4.766352
v 17.489759 27.819405 4.858902
v 21.547752 27.841503 4.858902
v 22.034525 27.850052 4.858902
v -7.135946 28.994740 4.858902
v -4.551486 28.705580 4.858902
v -7.189815 28.806547 4.858902
v -7.282801 28.818018 4.766351
v -7.231859 28.995970 4.766351
v 3.677794 27.726854 4.766352
v 3.559754 27.637882 4.766352
v 3.450474 27.592484 4.858902
v 3.102503 27.686300 4.858902
v 3.590268 27.819405 4.858902
v -8.447411 24.414522 4.858902
v -7.740039 24.422516 4.858902
v -3.508207 24.486567 4.858902
v -8.117558 24.198008 4.858902
v -8.521146 24.156963 4.858902
v -8.607618 24.191181 4.766352
v -8.556677 24.369135 4.766352
v 2.718945 25.039089 4.858902
v 2.815345 25.039532 4.766352
v 2.882406 24.950560 4.766352
v 2.792582 24.858009 4.858902
v 3.559754 27.637882 -4.303602
v 3.677794 27.726854 -4.303602
v 3.590268 27.819405 -4.396152
v 3.102503 27.686300 -4.396152
v 3.450474 27.592484 -4.396152
v -8.447411 24.414522 -4.396152
v -8.556677 24.369135 -4.303602
v -8.607618 24.191181 -4.303602
v -8.521146 24.156963 -4.396152
v -8.117558 24.198008 -4.396152
v -3.508206 24.486567 -4.396152
v -7.740039 24.422516 -4.396152
v -7.189815 28.806547 -4.396153
v -4.551486 28.705580 -4.396153
v -7.135946 28.994740 -4.396153
v -7.231860 28.995970 -4.303603
v -7.282801 28.818018 -4.303603
v 2.815345 25.039532 -4.303602
v 2.718945 25.039089 -4.396152
v 2.792582 24.858009 -4.396152
v 2.882406 24.950560 -4.303602
v 21.207617 24.950560 -4.303602
v 21.207640 24.948484 -4.396152
v 21.176615 24.855213 -4.396152
v 21.274704 24.861582 -4.303602
v 18.061466 13.970021 -4.396152
v 17.574699 13.961472 -4.396152
v 13.516708 13.939373 -4.396152
v 18.029924 13.846823 -4.303601
v 18.147940 13.935802 -4.303601
v 21.274704 24.861582 4.766352
v 21.176615 24.855213 4.858902
v 21.207617 24.950560 4.858902
v 21.207617 24.950560 4.766352
v 18.147940 13.935802 4.766353
v 18.029924 13.846823 4.766353
v 13.516708 13.939373 4.858903
v 17.574699 13.961472 4.858903
v 18.061466 13.970021 4.858903
v -11.108997 15.114708 4.858903
v -8.524733 14.825555 4.858903
v -11.162876 14.926518 4.858903
v -11.255862 14.937988 4.766353
v -11.204911 15.115940 4.766353
v -0.295755 13.846823 4.766353
v -0.413742 13.757836 4.766353
v -0.522963 13.712486 4.858903
v -0.871036 13.806270 4.858903
v -0.383280 13.939373 4.858903
v -12.420915 10.534488 4.858903
v -11.713445 10.542511 4.858903
v -7.484069 10.606556 4.858903
v -12.091099 10.317978 4.858903
v -12.494666 10.276923 4.858903
v -12.581139 10.311143 4.766353
v -12.530190 10.489094 4.766353
v -1.252716 11.159531 4.858903
v -1.156327 11.159990 4.766353
v -1.089213 11.071004 4.766353
v -1.179031 10.978454 4.858903
v -0.413742 13.757836 -4.303601
v -0.295755 13.846823 -4.303601
v -0.383280 13.939373 -4.396152
v -0.871036 13.806270 -4.396152
v -0.522963 13.712486 -4.396152
v -12.420915 10.534488 -4.396152
v -12.530190 10.489094 -4.303601
v -12.581139 10.311143 -4.303601
v -12.494666 10.276923 -4.396152
v -12.091099 10.317978 -4.396152
v -7.484069 10.606556 -4.396152
v -11.713445 10.542511 -4.396152
v -11.162876 14.926518 -4.396152
v -8.524733 14.825555 -4.396152
v -11.108997 15.114708 -4.396152
v -11.204911 15.115940 -4.303601
v -11.255862 14.937988 -4.303601
v -1.156327 11.159990 -4.303601
v -1.252716 11.159531 -4.396152
v -1.179031 10.978454 -4.396152
v -1.089213 11.071004 -4.303601
v 17.234564 11.071004 -4.303601
v 17.234587 11.068927 -4.396152
v 17.203558 10.975657 -4.396152
v 17.301647 10.982026 -4.303601
v 14.087950 0.089982 -4.396151
v 13.657743 0.059334 -4.396151
v 14.056405 -0.033216 -4.396151
v 14.056405 -0.033216 -4.303600
v 14.174421 0.055762 -4.303600
v 17.301647 10.982026 4.766353
v 17.203558 10.975657 4.858903
v 17.234564 11.071004 4.858903
v 17.234564 11.071004 4.766353
v 14.174421 0.055762 4.766354
v 14.056405 -0.033216 4.766354
v 14.056405 -0.033216 4.858904
v 13.657743 0.059335 4.858904
v 14.087950 0.089982 4.858904
v -15.418806 0.059335 4.858904
v -15.449009 -0.033216 4.858904
v -15.449009 -0.033216 4.766354
v -15.516094 0.055763 4.766354
v -4.966609 -0.033216 4.766354
v -5.151711 -0.033216 4.766354
v -5.059160 -0.033216 4.858904
v -4.966609 -0.033216 -4.303600
v -5.059160 -0.033216 -4.396151
v -5.151711 -0.033216 -4.303600
v -15.449009 -0.033216 -4.303600
v -15.449009 -0.033216 -4.396151
v -15.418806 0.059334 -4.396151
v -15.516094 0.055762 -4.303600
vt 0.873869 0.206105
vt 0.897437 0.207685
vt 0.975874 0.208051
vt 0.088977 0.879667
vt 0.088977 0.879667
vt 0.069305 0.879667
vt 0.069305 0.879667
vt 0.088797 0.879049
vt 0.088797 0.873678
vt 0.069485 0.873678
vt 0.069485 0.879049
vt 0.873589 0.205676
vt 0.976029 0.207602
vt 0.897258 0.207240
vt 0.846429 0.168166
vt 0.961458 0.163542
vt 0.856807 0.204428
vt 0.857371 0.205158
vt 0.886001 0.207240
vt 0.857955 0.207278
vt 0.088977 0.771106
vt 0.088977 0.878790
vt 0.069305 0.878790
vt 0.069305 0.771106
vt 0.088977 0.770229
vt 0.088977 0.770229
vt 0.069305 0.770229
vt 0.069305 0.770229
vt 0.846824 0.168222
vt 0.857158 0.204845
vt 0.961365 0.163551
vt 0.858769 0.205012
vt 0.975750 0.207674
vt 0.963309 0.163585
vt 0.088977 0.872183
vt 0.088977 0.782737
vt 0.069305 0.782737
vt 0.069305 0.872183
vt 0.841587 0.149670
vt 0.846609 0.167459
vt 0.887708 0.162922
vt 0.889444 0.163453
vt 0.945185 0.163453
vt 0.856794 0.167007
vt 0.088977 0.743742
vt 0.088977 0.769352
vt 0.069305 0.769352
vt 0.069305 0.743742
vt 0.088977 0.780983
vt 0.088977 0.737135
vt 0.069305 0.737135
vt 0.069305 0.780983
vt 0.861310 0.149962
vt 0.886471 0.151467
vt 0.960007 0.151833
vt 0.860977 0.150087
vt 0.960094 0.151940
vt 0.886245 0.151577
vt 0.844007 0.149831
vt 0.885950 0.152303
vt 0.888883 0.162543
vt 0.889656 0.163461
vt 0.857144 0.167050
vt 0.945161 0.163461
vt 0.830496 0.112504
vt 0.945525 0.107879
vt 0.840874 0.148766
vt 0.841170 0.149799
vt 0.887488 0.162919
vt 0.846213 0.167412
vt 0.088977 0.634304
vt 0.088977 0.741989
vt 0.069305 0.741989
vt 0.069305 0.634304
vt 0.088977 0.633427
vt 0.088977 0.633427
vt 0.069305 0.633427
vt 0.069305 0.633427
vt 0.830958 0.112003
vt 0.841292 0.148627
vt 0.945500 0.107332
vt 0.842904 0.148793
vt 0.959883 0.151455
vt 0.947443 0.107367
vt 0.088977 0.735381
vt 0.088977 0.645935
vt 0.069305 0.645935
vt 0.069305 0.735381
vt 0.825720 0.093452
vt 0.830743 0.111241
vt 0.871841 0.106704
vt 0.873509 0.107790
vt 0.929252 0.107790
vt 0.840860 0.111344
vt 0.088977 0.606946
vt 0.088977 0.632550
vt 0.069305 0.632550
vt 0.069305 0.606946
vt 0.088977 0.644181
vt 0.088977 0.600333
vt 0.069305 0.600333
vt 0.069305 0.644181
vt 0.845434 0.093744
vt 0.870611 0.095250
vt 0.944142 0.095617
vt 0.845033 0.094425
vt 0.944161 0.096279
vt 0.870318 0.095916
vt 0.828072 0.094168
vt 0.870023 0.096643
vt 0.872949 0.106881
vt 0.873789 0.107243
vt 0.841278 0.110832
vt 0.929295 0.107243
vt 0.813213 0.052128
vt 0.929817 0.052128
vt 0.824939 0.093103
vt 0.825235 0.094136
vt 0.871553 0.107257
vt 0.830280 0.111749
vt 0.088977 0.497503
vt 0.088977 0.605192
vt 0.069305 0.605192
vt 0.069305 0.497503
vt 0.088977 0.496626
vt 0.088977 0.496626
vt 0.069305 0.496626
vt 0.069305 0.496626
vt 0.813748 0.051025
vt 0.825425 0.092409
vt 0.929858 0.051025
vt 0.827037 0.092575
vt 0.944018 0.095239
vt 0.931576 0.051149
vt 0.088977 0.598579
vt 0.088977 0.497503
vt 0.069305 0.497503
vt 0.069305 0.598579
vt 0.088977 0.496626
vt 0.088977 0.496626
vt 0.069305 0.496626
vt 0.069305 0.496626
vt 0.854758 0.051757
vt 0.931416 0.051757
vt 0.813092 0.051757
vt 0.230546 0.708719
vt 0.231113 0.678069
vt 0.231115 0.744552
vt 0.088977 0.606069
vt 0.088977 0.606069
vt 0.069305 0.606069
vt 0.069305 0.606069
vt 0.826558 0.093268
vt 0.931543 0.052251
vt 0.944037 0.095905
vt 0.088977 0.742866
vt 0.088977 0.742865
vt 0.069305 0.742865
vt 0.069305 0.742866
vt 0.842493 0.148930
vt 0.947478 0.107913
vt 0.959970 0.151566
vt 0.828545 0.093485
vt 0.873231 0.106324
vt 0.870317 0.095984
vt 0.088977 0.879667
vt 0.088977 0.879667
vt 0.069305 0.879667
vt 0.069305 0.879667
vt 0.858426 0.204593
vt 0.963410 0.163576
vt 0.975905 0.207228
vt 0.844411 0.149703
vt 0.889098 0.162542
vt 0.886177 0.152200
vt 0.089178 0.879006
vt 0.857719 0.205583
vt 0.873844 0.206479
vt 0.858740 0.205467
vt 0.857124 0.205358
vt 0.856914 0.205344
vt 0.857016 0.205705
vt 0.886227 0.207685
vt 0.897057 0.208035
vt 0.897425 0.208060
vt 0.897425 0.208060
vt 0.069305 0.879667
vt 0.069104 0.879667
vt 0.069305 0.873060
vt 0.069104 0.873060
vt 0.069104 0.873522
vt 0.069104 0.879667
vt 0.069104 0.874306
vt 0.069104 0.879667
vt 0.069104 0.879667
vt 0.069104 0.879667
vt 0.069104 0.879667
vt 0.069305 0.879667
vt 0.961593 0.163887
vt 0.947505 0.169392
vt 0.963333 0.163208
vt 0.963757 0.163439
vt 0.089178 0.878476
vt 0.089178 0.879426
vt 0.089178 0.770229
vt 0.089178 0.770229
vt 0.089178 0.771192
vt 0.857159 0.167425
vt 0.846624 0.167855
vt 0.846339 0.167866
vt 0.846441 0.168227
vt 0.088977 0.770229
vt 0.089178 0.770229
vt 0.089178 0.770229
vt 0.089178 0.770229
vt 0.844311 0.150063
vt 0.860021 0.154577
vt 0.842680 0.149595
vt 0.841145 0.149154
vt 0.841049 0.149126
vt 0.841150 0.149487
vt 0.886562 0.152202
vt 0.886488 0.151941
vt 0.886460 0.151842
vt 0.069104 0.770229
vt 0.069104 0.768600
vt 0.069104 0.768653
vt 0.840732 0.149617
vt 0.840630 0.149260
vt 0.840727 0.149287
vt 0.842268 0.149724
vt 0.859683 0.154657
vt 0.843906 0.150188
vt 0.856753 0.166638
vt 0.846386 0.167766
vt 0.846005 0.167808
vt 0.845840 0.167458
vt 0.069104 0.743487
vt 0.069104 0.742866
vt 0.069104 0.742866
vt 0.069104 0.742866
vt 0.069305 0.742866
vt 0.945661 0.108225
vt 0.931572 0.113729
vt 0.947400 0.107545
vt 0.947824 0.107776
vt 0.089178 0.741675
vt 0.089178 0.742624
vt 0.089178 0.633427
vt 0.089178 0.633427
vt 0.089178 0.634390
vt 0.841293 0.111207
vt 0.830759 0.111636
vt 0.830474 0.111648
vt 0.830575 0.112008
vt 0.088977 0.633427
vt 0.089178 0.633427
vt 0.089178 0.633427
vt 0.089178 0.633427
vt 0.828444 0.093845
vt 0.844145 0.098357
vt 0.826813 0.093377
vt 0.825278 0.092936
vt 0.825181 0.092908
vt 0.825283 0.093268
vt 0.870702 0.095986
vt 0.870628 0.095724
vt 0.870600 0.095625
vt 0.069104 0.633427
vt 0.069104 0.631800
vt 0.069104 0.631852
vt 0.824797 0.093954
vt 0.824695 0.093597
vt 0.824792 0.093625
vt 0.826333 0.094061
vt 0.843740 0.098992
vt 0.827971 0.094525
vt 0.840820 0.110975
vt 0.830453 0.112104
vt 0.830072 0.112145
vt 0.829907 0.111795
vt 0.069104 0.606691
vt 0.069104 0.606069
vt 0.069104 0.606069
vt 0.069104 0.606069
vt 0.069305 0.606069
vt 0.929952 0.052474
vt 0.931465 0.051883
vt 0.931465 0.051883
vt 0.931889 0.052114
vt 0.089178 0.604878
vt 0.089178 0.605827
vt 0.089178 0.496626
vt 0.089178 0.496626
vt 0.089178 0.497589
vt 0.813627 0.050650
vt 0.813627 0.050650
vt 0.813360 0.051010
vt 0.089178 0.496626
vt 0.069104 0.496626
vt 0.069104 0.496626
vt 0.069104 0.496626
vt 0.069305 0.496626
vt 0.858301 0.207723
vt 0.857578 0.207699
vt 0.089178 0.879667
vt 0.089178 0.879667
vt 0.069104 0.879006
vt 0.896876 0.207586
vt 0.857703 0.207611
vt 0.069104 0.878476
vt 0.069104 0.771192
vt 0.897794 0.208060
vt 0.975874 0.208051
vt 0.976142 0.207699
vt 0.963654 0.163447
vt 0.963183 0.163086
vt 0.890006 0.163086
vt 0.889534 0.162726
vt 0.069104 0.770229
vt 0.069104 0.741675
vt 0.069104 0.634390
vt 0.886830 0.151842
vt 0.960007 0.151833
vt 0.960275 0.151481
vt 0.947789 0.107228
vt 0.947317 0.106868
vt 0.874138 0.106868
vt 0.873667 0.106508
vt 0.069104 0.633427
vt 0.069104 0.604878
vt 0.069104 0.497589
vt 0.870970 0.095625
vt 0.944142 0.095617
vt 0.944409 0.095265
vt 0.931921 0.051010
vt 0.931450 0.050650
vt 0.231115 0.744552
vt 0.230549 0.708892
vt 0.230551 0.708446
vt 0.231113 0.678069
vt 0.069104 0.496626
vt 0.069104 0.497789
vt 0.069104 0.598493
vt 0.825080 0.092548
vt 0.069104 0.646174
vt 0.069104 0.735295
vt 0.069104 0.601032
vt 0.069104 0.644320
vt 0.830372 0.111288
vt 0.840947 0.148766
vt 0.069104 0.782976
vt 0.069104 0.872096
vt 0.069104 0.737833
vt 0.069104 0.781121
vt 0.846237 0.167506
vt 0.856812 0.204984
vn -0.0000 0.0000 -1.0000
vn 0.0000 -1.0000 0.0000
vn 0.9614 -0.2751 -0.0000
vn 0.0000 0.0000 1.0000
vn -0.9614 0.2752 0.0000
vn 0.0000 1.0000 0.0000
vn -0.9613 0.2754 0.0000
vn 0.9614 -0.2753 0.0000
vn -0.9614 0.2751 0.0000
vn -0.9615 0.2748 0.0000
vn 0.9613 -0.2754 0.0000
vn 0.5047 -0.6693 -0.5452
vn 0.0408 -0.0117 -0.9991
vn 0.0000 -0.7071 -0.7071
vn 0.5047 -0.6693 0.5453
vn 0.0408 -0.0117 0.9991
vn 0.0000 -0.7071 0.7071
vn -0.8673 -0.1716 0.4673
vn -0.0159 0.6195 0.7848
vn -0.8683 -0.1700 -0.4660
vn -0.0159 0.6195 -0.7848
vn 0.0629 -0.0180 -0.9979
vn -0.2171 0.1772 -0.9599
vn 0.0329 -0.0094 -0.9994
vn -0.5894 -0.3071 -0.7472
vn -0.2171 0.1772 0.9599
vn 0.0329 -0.0094 0.9994
vn 0.0629 -0.0180 0.9979
vn -0.5894 -0.3071 0.7472
vn 0.0630 -0.0180 -0.9979
vn -0.2172 0.1771 -0.9599
vn -0.5893 -0.3072 -0.7472
vn -0.2172 0.1771 0.9599
vn -0.5893 -0.3072 0.7472
vn -0.2882 0.2031 0.9358
vn -0.8683 -0.1699 -0.4660
vn -0.2882 0.2031 -0.9358
vn 0.8698 0.1767 -0.4606
vn 0.8698 0.1767 0.4606
vn 0.6798 -0.1945 -0.7071
vn 0.6020 -0.7985 -0.0000
vn 0.6798 -0.1945 0.7071
vn 0.0021 -0.8908 0.4544
vn -0.6798 0.1946 0.7071
vn -0.7985 -0.6020 0.0000
vn 0.0021 -0.8949 -0.4464
vn -0.6798 0.1946 -0.7071
vn 0.0000 0.7071 -0.7071
vn -0.6020 0.7985 0.0000
vn -0.6798 0.1947 -0.7071
vn -0.6019 0.7986 0.0000
vn 0.0000 0.7071 0.7071
vn -0.6798 0.1947 0.7071
vn 0.0022 -0.8908 0.4543
vn -0.7986 -0.6019 0.0000
vn 0.0023 -0.8949 -0.4463
vn -0.6799 0.1943 -0.7071
vn -0.6021 0.7984 0.0000
vn -0.6799 0.1943 0.7071
vn -0.7984 -0.6021 0.0000
vn 0.6798 -0.1946 0.7071
vn 0.7985 0.6020 -0.0000
vn 0.6798 -0.1946 -0.7071
vn 0.6798 -0.1947 0.7071
vn 0.9614 -0.2752 0.0000
vn 0.6798 -0.1947 -0.7071
usemtl Material.004
s off
f 5/1/1 13/2/1 38/3/1
f 11/4/2 2/5/2 14/6/2 23/7/2
f 1/8/3 9/9/3 17/10/3 15/11/3
f 21/12/4 28/13/4 25/14/4
f 80/15/4 32/16/4 19/17/4
f 22/18/4 24/19/4 16/20/4
f 40/21/5 36/22/5 30/23/5 35/24/5
f 50/25/6 41/26/6 34/27/6 67/28/6
f 45/29/1 7/30/1 43/31/1
f 6/32/1 37/33/1 44/34/1
f 8/35/3 49/36/3 81/37/3 18/38/3
f 55/39/1 47/40/1 53/41/1
f 68/42/4 33/43/4 79/44/4
f 63/45/7 51/46/7 66/47/7 83/48/7
f 48/49/8 61/50/8 72/51/8 82/52/8
f 57/53/1 65/54/1 98/55/1
f 76/56/4 88/57/4 85/58/4
f 77/59/4 84/60/4 70/61/4
f 54/62/1 46/63/1 42/64/1
f 140/65/4 92/66/4 74/67/4
f 71/68/4 69/69/4 78/70/4
f 100/71/9 96/72/9 90/73/9 95/74/9
f 110/75/6 101/76/6 94/77/6 127/78/6
f 105/79/1 59/80/1 103/81/1
f 58/82/1 97/83/1 104/84/1
f 60/85/3 109/86/3 141/87/3 73/88/3
f 115/89/1 107/90/1 113/91/1
f 128/92/4 93/93/4 139/94/4
f 123/95/10 111/96/10 126/97/10 143/98/10
f 108/99/11 121/100/11 132/101/11 142/102/11
f 117/103/1 125/104/1 158/105/1
f 136/106/4 148/107/4 145/108/4
f 137/109/4 144/110/4 130/111/4
f 114/112/1 106/113/1 102/114/1
f 177/115/4 152/116/4 134/117/4
f 131/118/4 129/119/4 138/120/4
f 160/121/5 156/122/5 150/123/5 155/124/5
f 169/125/6 161/126/6 154/127/6 172/128/6
f 165/129/1 119/130/1 163/131/1
f 118/132/1 157/133/1 164/134/1
f 120/135/3 168/136/3 178/137/3 133/138/3
f 167/139/6 170/140/6 174/141/6 175/142/6
f 173/143/4 153/144/4 176/145/4
f 171/146/4 166/147/4 162/148/4
f 159/149/2 124/150/2 146/151/2 147/152/2
f 135/153/4 151/154/4 149/155/4
f 99/156/2 64/157/2 86/158/2 87/159/2
f 75/160/4 91/161/4 89/162/4
f 116/163/1 112/164/1 122/165/1
f 39/166/2 12/167/2 26/168/2 27/169/2
f 20/170/4 31/171/4 29/172/4
f 56/173/1 52/174/1 62/175/1
f 1/8/12 2/5/12 3/176/12
f 4/177/13 5/178/13 6/179/13 7/180/13 8/181/13 9/182/13
f 10/183/14 11/184/14 12/185/14 13/186/14
f 14/6/15 15/187/15 16/188/15
f 17/10/16 18/189/16 19/190/16 20/191/16 21/192/16 22/193/16
f 23/7/17 24/194/17 25/195/17 26/168/17
f 27/169/18 28/196/18 29/197/18 30/198/18
f 31/171/19 32/199/19 33/200/19 34/201/19 35/202/19
f 36/22/20 37/203/20 38/204/20 39/166/20
f 40/21/21 41/26/21 42/205/21 43/206/21 44/207/21
f 45/29/22 46/208/22 47/209/22 48/210/22 49/211/22
f 50/25/23 51/212/23 52/213/23 53/214/23 54/215/23
f 55/39/24 56/216/24 57/217/24 58/218/24 59/219/24 60/220/24 61/221/24
f 62/175/25 63/222/25 64/223/25 65/224/25
f 66/47/26 67/28/26 68/225/26 69/226/26 70/227/26
f 71/68/27 72/228/27 73/229/27 74/230/27 75/231/27 76/232/27 77/233/27
f 78/70/28 79/234/28 80/235/28 81/236/28 82/237/28
f 83/48/29 84/238/29 85/239/29 86/158/29
f 87/159/18 88/240/18 89/241/18 90/242/18
f 91/161/19 92/243/19 93/244/19 94/245/19 95/246/19
f 96/72/20 97/247/20 98/248/20 99/156/20
f 100/71/21 101/76/21 102/249/21 103/250/21 104/251/21
f 105/79/30 106/252/30 107/253/30 108/254/30 109/255/30
f 110/75/31 111/256/31 112/257/31 113/258/31 114/259/31
f 115/89/24 116/260/24 117/261/24 118/262/24 119/263/24 120/264/24 121/265/24
f 122/165/32 123/266/32 124/267/32 125/268/32
f 126/97/33 127/78/33 128/269/33 129/270/33 130/271/33
f 131/118/27 132/272/27 133/273/27 134/274/27 135/275/27 136/276/27 137/277/27
f 138/120/28 139/278/28 140/279/28 141/280/28 142/281/28
f 143/98/34 144/282/34 145/283/34 146/151/34
f 147/152/18 148/284/18 149/285/18 150/286/18
f 151/154/35 152/287/35 153/288/35 154/289/35 155/290/35
f 156/122/36 157/291/36 158/292/36 159/149/36
f 160/121/37 161/126/37 162/293/37 163/294/37 164/295/37
f 165/129/38 166/296/38 167/297/38 168/298/38
f 169/125/6 170/140/6 171/299/6
f 172/128/6 173/300/6 174/141/6
f 175/142/39 176/301/39 177/302/39 178/303/39
f 3/304/40 4/177/40 9/182/40 1/305/40
f 2/5/14 11/4/14 10/306/14 3/307/14
f 14/6/41 2/5/41 1/8/41 15/11/41
f 15/11/42 17/10/42 22/193/42 16/308/42
f 16/20/17 24/19/17 23/309/17 14/310/17
f 21/12/4 25/14/4 24/19/4 22/18/4
f 27/169/43 26/168/43 25/195/43 28/196/43
f 26/168/2 12/167/2 11/4/2 23/7/2
f 20/170/4 29/172/4 28/13/4 21/12/4
f 35/24/44 30/23/44 29/311/44 31/312/44
f 30/23/45 36/22/45 39/166/45 27/169/45
f 5/1/1 38/3/1 37/33/1 6/32/1
f 38/3/46 13/2/46 12/313/46 39/314/46
f 44/34/47 37/33/47 36/315/47 40/316/47
f 6/32/1 44/34/1 43/31/1 7/30/1
f 45/29/1 43/31/1 42/64/1 46/63/1
f 54/62/48 42/64/48 41/317/48 50/318/48
f 34/27/49 41/26/49 40/21/49 35/24/49
f 55/39/1 53/41/1 52/174/1 56/173/1
f 46/63/1 54/62/1 53/41/1 47/40/1
f 62/175/50 52/174/50 51/319/50 63/222/50
f 66/47/51 51/46/51 50/25/51 67/28/51
f 77/59/4 70/61/4 69/69/4 71/68/4
f 78/70/4 69/69/4 68/42/4 79/44/4
f 67/28/52 34/27/52 33/320/52 68/225/52
f 83/48/53 66/47/53 70/227/53 84/238/53
f 76/56/4 85/58/4 84/60/4 77/59/4
f 87/159/54 86/158/54 85/239/54 88/240/54
f 86/158/55 64/157/55 63/45/55 83/48/55
f 75/160/4 89/162/4 88/57/4 76/56/4
f 95/74/44 90/73/44 89/321/44 91/322/44
f 90/73/45 96/72/45 99/156/45 87/159/45
f 57/53/1 98/55/1 97/83/1 58/82/1
f 98/55/56 65/54/56 64/323/56 99/324/56
f 104/84/47 97/83/47 96/325/47 100/326/47
f 58/82/1 104/84/1 103/81/1 59/80/1
f 105/79/1 103/81/1 102/114/1 106/113/1
f 114/112/48 102/114/48 101/327/48 110/328/48
f 100/71/49 95/74/49 94/77/49 101/76/49
f 115/89/1 113/91/1 112/164/1 116/163/1
f 106/113/1 114/112/1 113/91/1 107/90/1
f 122/165/57 112/164/57 111/329/57 123/266/57
f 126/97/58 111/96/58 110/75/58 127/78/58
f 137/109/4 130/111/4 129/119/4 131/118/4
f 138/120/4 129/119/4 128/92/4 139/94/4
f 127/78/52 94/77/52 93/330/52 128/269/52
f 143/98/59 126/97/59 130/271/59 144/282/59
f 136/106/4 145/108/4 144/110/4 137/109/4
f 147/152/54 146/151/54 145/283/54 148/284/54
f 146/151/60 124/150/60 123/95/60 143/98/60
f 135/153/4 149/155/4 148/107/4 136/106/4
f 155/124/44 150/123/44 149/331/44 151/332/44
f 150/123/45 156/122/45 159/149/45 147/152/45
f 117/103/1 158/105/1 157/133/1 118/132/1
f 158/105/56 125/104/56 124/333/56 159/334/56
f 164/134/47 157/133/47 156/335/47 160/336/47
f 118/132/1 164/134/1 163/131/1 119/130/1
f 165/129/1 163/131/1 162/337/1 166/296/1
f 171/146/6 162/148/6 161/338/6 169/339/6
f 154/127/49 161/126/49 160/121/49 155/124/49
f 166/147/6 171/146/6 170/340/6 167/341/6
f 169/125/6 172/128/6 174/141/6 170/140/6
f 175/142/6 174/141/6 173/300/6 176/301/6
f 172/128/6 154/127/6 153/342/6 173/300/6
f 133/138/61 178/137/61 177/343/61 134/344/61
f 176/145/4 153/144/4 152/116/4 177/115/4
f 167/139/62 175/142/62 178/137/62 168/136/62
f 119/130/63 165/129/63 168/298/63 120/345/63
f 134/117/4 152/116/4 151/154/4 135/153/4
f 73/88/61 141/87/61 140/346/61 74/347/61
f 139/94/4 93/93/4 92/66/4 140/65/4
f 142/102/64 132/101/64 131/348/64 138/349/64
f 141/87/8 109/86/8 108/99/8 142/102/8
f 120/135/65 133/138/65 132/101/65 121/100/65
f 116/163/1 122/165/1 125/104/1 117/103/1
f 107/90/66 115/89/66 121/265/66 108/350/66
f 59/80/63 105/79/63 109/255/63 60/351/63
f 74/67/4 92/66/4 91/161/4 75/160/4
f 18/38/61 81/37/61 80/352/61 19/353/61
f 79/44/4 33/43/4 32/16/4 80/15/4
f 82/52/61 72/51/61 71/354/61 78/355/61
f 48/49/65 82/52/65 81/37/65 49/36/65
f 60/85/65 73/88/65 72/51/65 61/50/65
f 56/173/1 62/175/1 65/54/1 57/53/1
f 47/40/63 55/39/63 61/221/63 48/356/63
f 7/30/63 45/29/63 49/211/63 8/357/63
f 19/17/4 32/16/4 31/171/4 20/170/4
f 8/35/3 18/38/3 17/10/3 9/9/3
f 4/177/1 10/183/1 13/2/1 5/1/1
f 4/177/1 3/304/1 10/183/1
