# Blender v2.82 (sub 7) OBJ File: 'rowanlogo.blend'
# www.blender.org
mtllib rowanlogo_f.mtl
o lf_path16027.004
v -4.482127 38.817089 4.766351
v -4.363886 38.906006 4.766351
v -4.386842 38.813454 4.858902
v -4.526252 38.330956 4.858902
v -4.185542 38.153446 4.858902
v -4.589132 38.112400 4.858902
v -4.675604 38.146622 4.766351
v -4.624449 38.324512 4.766351
v 25.142010 38.906006 4.858902
v 25.142010 38.906006 4.766351
v 25.209080 38.817032 4.766351
v 25.110983 38.810658 4.858902
v -4.363886 38.906006 -4.303603
v -4.482127 38.817089 -4.303603
v -4.386842 38.813454 -4.396153
v -4.624449 38.324512 -4.303603
v -4.675604 38.146622 -4.303603
v -4.589132 38.112400 -4.396153
v -4.185542 38.153446 -4.396153
v -4.526252 38.330956 -4.396153
v 25.142010 38.906006 -4.303603
v 25.142033 38.903931 -4.396153
v 25.110983 38.810658 -4.396153
v 25.209080 38.817032 -4.303603
v 22.079977 27.891232 -4.303602
v 21.993507 27.925449 -4.396152
v 21.506721 27.916908 -4.396152
v 17.448729 27.894810 -4.396152
v 21.961946 27.802259 -4.303602
v -7.176984 29.070145 -4.396153
v -7.272898 29.071375 -4.303603
v -7.323827 28.893419 -4.303603
v -7.230843 28.881952 -4.396153
v -4.592529 28.780985 -4.396153
v 3.549216 27.894810 -4.396152
v 3.350621 27.730230 -4.396152
v 3.349255 27.457188 -4.396152
v 3.518746 27.713276 -4.303602
v 3.636742 27.802259 -4.303602
v 21.961946 27.802259 4.766352
v 17.448729 27.894810 4.858902
v 21.506721 27.916908 4.858902
v 21.993507 27.925449 4.858902
v 22.079977 27.891232 4.766352
v -7.176984 29.070145 4.858902
v -4.592529 28.780985 4.858902
v -7.230843 28.881952 4.858902
v -7.323827 28.893419 4.766351
v -7.272897 29.071375 4.766351
v 3.636742 27.802259 4.766352
v 3.518746 27.713276 4.766352
v 3.349255 27.457188 4.858902
v 3.350621 27.730230 4.858902
v 3.549216 27.894810 4.858902
v -12.399752 10.820728 4.858903
v -11.913733 11.070939 4.858903
v -11.834271 10.900408 4.858903
v -12.196280 10.544836 4.858903
v -8.887792 10.165140 4.858903
v -12.527290 10.375081 4.858903
v -12.620275 10.386549 4.766353
v -12.569345 10.564506 4.766353
v 1.452785 20.488590 4.766352
v 1.519890 20.399607 4.766352
v 1.456777 20.307056 4.858903
v 1.347304 20.456347 4.858903
v 10.228011 20.307056 4.858903
v 10.588504 20.399607 4.766352
v 10.655588 20.310629 4.766352
v 10.538609 20.238260 4.858903
v 1.519890 20.399607 -4.303602
v 1.452785 20.488590 -4.303602
v 1.347304 20.456347 -4.396152
v 1.456777 20.307056 -4.396152
v -11.913733 11.070939 -4.396152
v -12.399752 10.820728 -4.396152
v -12.569345 10.564506 -4.303601
v -12.620275 10.386549 -4.303601
v -12.527290 10.375081 -4.396152
v -8.887792 10.165140 -4.396152
v -12.196280 10.544836 -4.396152
v -11.834272 10.900408 -4.396152
v 10.588504 20.399607 -4.303602
v 10.228011 20.307056 -4.396152
v 10.538609 20.238260 -4.396152
v 10.655587 20.310629 -4.303602
v 7.528367 9.384366 -4.303601
v 7.434322 9.392126 -4.396151
v 4.347920 9.387938 -4.396151
v 7.410351 9.295388 -4.303601
v -1.747230 9.387938 -4.396151
v -2.015059 9.230895 -4.396151
v -1.910744 9.077977 -4.396151
v -1.777721 9.206409 -4.303601
v -1.659705 9.295388 -4.303601
v 7.410351 9.295388 4.766353
v 4.347921 9.387938 4.858904
v 7.434322 9.392126 4.858904
v 7.528367 9.384366 4.766353
v -1.659705 9.295388 4.766353
v -1.777721 9.206409 4.766353
v -1.910744 9.077977 4.858904
v -2.015059 9.230895 4.858904
v -1.747230 9.387938 4.858904
v -15.422216 0.259599 4.858904
v -15.275969 0.134741 4.858904
v -15.488152 0.042190 4.766354
v -15.555237 0.131169 4.766354
v -4.375013 0.131168 4.766354
v -4.493029 0.042190 4.766354
v -4.470258 0.134741 4.858904
v -4.375013 0.131168 -4.303600
v -4.470258 0.134740 -4.396151
v -4.493029 0.042189 -4.303600
v -15.488152 0.042189 -4.303600
v -15.275969 0.134740 -4.396151
v -15.422216 0.259599 -4.396151
v -15.555237 0.131168 -4.303600
vt 0.170163 0.204948
vt 0.288239 0.207597
vt 0.275675 0.163725
vt 0.088977 0.879667
vt 0.088977 0.879667
vt 0.069305 0.879667
vt 0.069305 0.879667
vt 0.088797 0.879049
vt 0.088797 0.873677
vt 0.069485 0.873677
vt 0.069485 0.879049
vt 0.170073 0.204876
vt 0.275454 0.163704
vt 0.288004 0.207521
vt 0.158031 0.168312
vt 0.273495 0.163670
vt 0.168448 0.204711
vt 0.169008 0.205416
vt 0.288129 0.207897
vt 0.169610 0.207570
vt 0.201209 0.163581
vt 0.257160 0.163581
vt 0.168435 0.167148
vt 0.088977 0.770229
vt 0.088977 0.770229
vt 0.069305 0.770229
vt 0.069305 0.770229
vt 0.137008 0.094850
vt 0.200409 0.162918
vt 0.157814 0.167554
vt 0.088977 0.872183
vt 0.088977 0.782737
vt 0.069305 0.782737
vt 0.069305 0.872183
vt 0.158106 0.168338
vt 0.168536 0.204782
vt 0.273713 0.163690
vt 0.137056 0.094786
vt 0.157889 0.167580
vt 0.200536 0.162938
vt 0.139335 0.095107
vt 0.192903 0.133020
vt 0.228255 0.133020
vt 0.139015 0.095794
vt 0.200531 0.161838
vt 0.192462 0.133621
vt 0.138964 0.095858
vt 0.192345 0.133638
vt 0.200404 0.161819
vt 0.179990 0.089011
vt 0.151211 0.092144
vt 0.204556 0.089011
vt 0.088977 0.588702
vt 0.088977 0.696391
vt 0.069305 0.696391
vt 0.069305 0.588702
vt 0.137827 0.093740
vt 0.216848 0.089100
vt 0.229344 0.132760
vt 0.201337 0.163601
vt 0.168522 0.167173
vt 0.257357 0.163601
vt 0.124841 0.052338
vt 0.178810 0.088451
vt 0.136494 0.093057
vt 0.139284 0.095171
vt 0.228094 0.133037
vt 0.192786 0.133037
vt 0.088977 0.587825
vt 0.088977 0.587825
vt 0.069305 0.587825
vt 0.069305 0.587825
vt 0.088977 0.497503
vt 0.088977 0.586948
vt 0.069305 0.586948
vt 0.069305 0.497503
vt 0.124874 0.052220
vt 0.136542 0.092990
vt 0.178911 0.088378
vt 0.088977 0.697268
vt 0.088977 0.697268
vt 0.069305 0.697268
vt 0.069305 0.697268
vt 0.088977 0.496626
vt 0.088977 0.496626
vt 0.069305 0.496626
vt 0.069305 0.496626
vt 0.088977 0.598579
vt 0.088977 0.497503
vt 0.069305 0.497503
vt 0.069305 0.598579
vt 0.125430 0.051835
vt 0.168927 0.051835
vt 0.179230 0.087835
vt 0.125464 0.051717
vt 0.179331 0.087762
vt 0.169015 0.051717
vt 0.137876 0.093674
vt 0.229507 0.132742
vt 0.216995 0.089028
vt 0.179888 0.089083
vt 0.204424 0.089083
vt 0.151145 0.092211
vt 0.088977 0.698145
vt 0.088977 0.769352
vt 0.069305 0.769352
vt 0.069305 0.698145
vt 0.088977 0.780983
vt 0.088977 0.600333
vt 0.069305 0.600333
vt 0.069305 0.780983
vt 0.088977 0.771106
vt 0.088977 0.878790
vt 0.069305 0.878790
vt 0.069305 0.771106
vt 0.089178 0.879008
vt 0.169096 0.205488
vt 0.170154 0.205321
vt 0.168525 0.205284
vt 0.168290 0.205279
vt 0.168394 0.205637
vt 0.288365 0.207973
vt 0.288365 0.207973
vt 0.288627 0.207978
vt 0.288231 0.207970
vt 0.069305 0.879667
vt 0.069104 0.879667
vt 0.069305 0.873060
vt 0.069104 0.873060
vt 0.069104 0.873533
vt 0.069104 0.874252
vt 0.069104 0.879667
vt 0.069104 0.879667
vt 0.069305 0.879667
vt 0.069104 0.771192
vt 0.069104 0.770229
vt 0.069104 0.770229
vt 0.157645 0.168317
vt 0.157543 0.167959
vt 0.157830 0.167947
vt 0.168450 0.167520
vt 0.200450 0.163289
vt 0.200562 0.163276
vt 0.201126 0.163215
vt 0.201561 0.163208
vt 0.089178 0.770229
vt 0.089178 0.770229
vt 0.089178 0.770229
vt 0.088977 0.770229
vt 0.168537 0.167546
vt 0.157905 0.167973
vt 0.157617 0.167985
vt 0.157719 0.168343
vt 0.088977 0.770229
vt 0.089178 0.770229
vt 0.089178 0.770229
vt 0.089178 0.770229
vt 0.138742 0.096049
vt 0.138548 0.095840
vt 0.137155 0.094345
vt 0.142587 0.100176
vt 0.136270 0.093395
vt 0.136270 0.093395
vt 0.136372 0.093753
vt 0.089178 0.697268
vt 0.089178 0.697576
vt 0.229708 0.133393
vt 0.229865 0.133300
vt 0.229361 0.133085
vt 0.069305 0.697268
vt 0.069104 0.697268
vt 0.069104 0.697268
vt 0.137280 0.094597
vt 0.136449 0.093704
vt 0.136222 0.093461
vt 0.136222 0.093461
vt 0.145575 0.100080
vt 0.137423 0.094310
vt 0.139069 0.095475
vt 0.069104 0.697268
vt 0.069104 0.697268
vt 0.069305 0.697268
vt 0.069104 0.588527
vt 0.069104 0.587825
vt 0.178851 0.088821
vt 0.179332 0.088769
vt 0.179805 0.088717
vt 0.180241 0.088710
vt 0.089178 0.587825
vt 0.089178 0.587825
vt 0.088977 0.587825
vt 0.088977 0.587825
vt 0.089178 0.587825
vt 0.089178 0.587825
vt 0.089178 0.587825
vt 0.125256 0.052027
vt 0.124493 0.051516
vt 0.124338 0.051703
vt 0.089178 0.497287
vt 0.069104 0.497287
vt 0.069104 0.496626
vt 0.069104 0.496626
vt 0.069305 0.496626
vt 0.169699 0.207646
vt 0.168967 0.207623
vt 0.089178 0.879667
vt 0.089178 0.879667
vt 0.069104 0.879008
vt 0.288129 0.207897
vt 0.169355 0.207905
vt 0.069104 0.878476
vt 0.069104 0.770229
vt 0.288635 0.207622
vt 0.276023 0.163587
vt 0.275548 0.163228
vt 0.201689 0.163228
vt 0.201214 0.162870
vt 0.192887 0.133751
vt 0.193158 0.133393
vt 0.069104 0.766577
vt 0.069104 0.697576
vt 0.069104 0.695427
vt 0.069104 0.587825
vt 0.229978 0.133034
vt 0.217374 0.088997
vt 0.216899 0.088638
vt 0.180343 0.088638
vt 0.179867 0.088279
vt 0.169399 0.051703
vt 0.168923 0.051344
vt 0.124608 0.051344
vt 0.069104 0.496626
vt 0.069104 0.585431
vt 0.069104 0.499019
vt 0.069104 0.598717
vt 0.136167 0.093036
vt 0.069104 0.603110
vt 0.069104 0.781121
vt 0.157514 0.167626
vt 0.168187 0.204920
vt 0.069104 0.782976
vt 0.069104 0.872096
vn 0.0000 -0.0000 -1.0000
vn 0.0000 -1.0000 0.0000
vn 0.9607 -0.2776 0.0000
vn -0.0000 0.0000 1.0000
vn 0.0000 1.0000 0.0000
vn 0.9614 -0.2751 0.0000
vn -0.9614 0.2752 0.0000
vn -0.9614 0.2751 -0.0000
vn -0.9615 0.2749 0.0000
vn -0.9614 0.2753 0.0000
vn 0.5039 -0.6700 -0.5451
vn 0.2832 -0.0815 -0.9556
vn -0.8683 -0.1698 -0.4661
vn 0.5039 -0.6700 0.5451
vn 0.2832 -0.0815 0.9556
vn -0.8673 -0.1714 0.4674
vn -0.0159 0.6195 0.7848
vn 0.0629 -0.0180 0.9979
vn -0.4378 0.2643 0.8594
vn -0.0159 0.6195 -0.7848
vn 0.0629 -0.0180 -0.9979
vn -0.4378 0.2643 -0.8594
vn 0.0502 -0.0144 -0.9986
vn -0.5316 -0.3940 -0.7498
vn -0.1859 -0.4450 -0.8760
vn -0.5316 -0.3940 0.7498
vn 0.0502 -0.0144 0.9986
vn -0.1859 -0.4450 0.8760
vn -0.0202 0.6938 0.7199
vn -0.3472 0.2450 0.9052
vn -0.0202 0.6938 -0.7199
vn -0.3472 0.2450 -0.9052
vn 0.2970 0.2963 -0.9077
vn -0.5047 0.6694 -0.5452
vn -0.5047 0.6694 0.5452
vn 0.2970 0.2963 0.9077
vn 0.6793 -0.1963 -0.7071
vn 0.0014 -0.8945 -0.4471
vn 0.6010 -0.7992 0.0000
vn 0.6793 -0.1963 0.7071
vn 0.0014 -0.8905 0.4551
vn -0.6798 0.1947 0.7071
vn -0.7985 -0.6019 0.0000
vn 0.0000 0.7071 0.7071
vn -0.6019 0.7985 0.0000
vn -0.6798 0.1947 -0.7071
vn 0.0000 0.7071 -0.7071
vn -0.6799 0.1944 -0.7071
vn -0.6021 0.7984 0.0000
vn 0.0000 -0.7071 -0.7071
vn -0.7984 -0.6021 0.0000
vn -0.6799 0.1944 0.7071
vn 0.0000 -0.7071 0.7071
vn -0.6798 0.1946 0.7071
vn -0.7985 -0.6020 0.0000
vn -0.6020 0.7985 0.0000
vn -0.6798 0.1946 -0.7071
vn 0.6798 -0.1946 0.7071
vn 0.7985 0.6020 -0.0000
vn 0.6798 -0.1946 -0.7071
vn 0.9611 -0.2764 0.0000
usemtl Material.004
s off
f 5/1/1 12/2/1 43/3/1
f 10/4/2 2/5/2 13/6/2 21/7/2
f 1/8/3 8/9/3 16/10/3 14/11/3
f 19/12/4 26/13/4 23/14/4
f 30/15/4 27/16/4 18/17/4
f 20/18/4 22/19/4 15/20/4
f 35/21/4 28/22/4 34/23/4
f 50/24/5 40/25/5 29/26/5 39/27/5
f 76/28/4 36/29/4 33/30/4
f 7/31/6 49/32/6 31/33/6 17/34/6
f 45/35/1 6/36/1 42/37/1
f 55/38/1 47/39/1 53/40/1
f 57/41/1 65/42/1 67/43/1
f 56/44/1 52/45/1 66/46/1
f 75/47/4 73/48/4 37/49/4
f 104/50/1 59/51/1 97/52/1
f 99/53/7 69/54/7 86/55/7 87/56/7
f 81/57/4 88/58/4 85/59/4
f 54/60/1 46/61/1 41/62/1
f 117/63/4 92/64/4 79/65/4
f 82/66/4 84/67/4 74/68/4
f 100/69/5 96/70/5 90/71/5 95/72/5
f 109/73/8 101/74/8 94/75/8 112/76/8
f 105/77/1 60/78/1 103/79/1
f 68/80/2 64/81/2 71/82/2 83/83/2
f 107/84/5 110/85/5 114/86/5 115/87/5
f 61/88/6 108/89/6 118/90/6 78/91/6
f 116/92/4 113/93/4 93/94/4
f 106/95/1 102/96/1 111/97/1
f 58/98/1 70/99/1 98/100/1
f 91/101/4 89/102/4 80/103/4
f 63/104/9 51/105/9 38/106/9 72/107/9
f 48/108/6 62/109/6 77/110/6 32/111/6
f 44/112/10 11/113/10 24/114/10 25/115/10
f 1/8/11 2/5/11 3/116/11
f 4/117/12 5/118/12 6/119/12 7/120/12 8/121/12
f 9/122/13 10/123/13 11/124/13 12/125/13
f 13/6/14 14/126/14 15/127/14
f 16/10/15 17/128/15 18/129/15 19/130/15 20/131/15
f 21/7/16 22/132/16 23/133/16 24/134/16
f 25/115/17 26/135/17 27/136/17 28/137/17 29/26/17
f 30/15/18 31/138/18 32/139/18 33/140/18 34/141/18
f 35/21/19 36/142/19 37/143/19 38/144/19 39/145/19
f 40/25/20 41/146/20 42/147/20 43/148/20 44/149/20
f 45/35/21 46/150/21 47/151/21 48/152/21 49/153/21
f 50/24/22 51/154/22 52/155/22 53/156/22 54/157/22
f 55/38/23 56/158/23 57/159/23 58/160/23 59/161/23 60/162/23 61/163/23 62/164/23
f 63/104/24 64/81/24 65/165/24 66/166/24
f 67/43/25 68/167/25 69/168/25 70/169/25
f 71/82/26 72/170/26 73/171/26 74/172/26
f 75/47/27 76/173/27 77/174/27 78/175/27 79/176/27 80/177/27 81/178/27 82/179/27
f 83/83/28 84/180/28 85/181/28 86/182/28
f 87/56/29 88/183/29 89/184/29 90/71/29
f 91/101/30 92/185/30 93/186/30 94/187/30 95/188/30
f 96/70/31 97/189/31 98/190/31 99/191/31
f 100/69/32 101/192/32 102/193/32 103/194/32 104/195/32
f 105/77/33 106/196/33 107/197/33 108/198/33
f 109/73/34 110/85/34 111/199/34
f 112/76/35 113/200/35 114/86/35
f 115/87/36 116/201/36 117/202/36 118/203/36
f 3/204/37 4/117/37 8/121/37 1/205/37
f 2/5/38 10/4/38 9/206/38 3/207/38
f 13/6/39 2/5/39 1/8/39 14/11/39
f 14/11/40 16/10/40 20/131/40 15/208/40
f 15/20/41 22/19/41 21/209/41 13/210/41
f 19/12/4 23/14/4 22/19/4 20/18/4
f 25/115/42 24/114/42 23/211/42 26/135/42
f 24/114/43 11/113/43 10/4/43 21/7/43
f 18/17/4 27/16/4 26/13/4 19/12/4
f 34/23/4 28/22/4 27/16/4 30/15/4
f 39/27/44 29/26/44 28/137/44 35/212/44
f 29/26/45 40/25/45 44/112/45 25/115/45
f 5/1/1 43/3/1 42/37/1 6/36/1
f 43/3/46 12/2/46 11/213/46 44/214/46
f 45/35/1 42/37/1 41/62/1 46/61/1
f 54/60/47 41/62/47 40/215/47 50/216/47
f 55/38/1 53/40/1 52/45/1 56/44/1
f 46/61/1 54/60/1 53/40/1 47/39/1
f 66/46/48 52/45/48 51/217/48 63/218/48
f 38/106/49 51/105/49 50/24/49 39/27/49
f 56/44/1 66/46/1 65/42/1 57/41/1
f 67/43/50 65/42/50 64/219/50 68/167/50
f 71/82/51 64/81/51 63/104/51 72/107/51
f 82/66/4 74/68/4 73/48/4 75/47/4
f 72/107/52 38/106/52 37/220/52 73/221/52
f 83/83/53 71/82/53 74/172/53 84/180/53
f 81/57/4 85/59/4 84/67/4 82/66/4
f 87/56/54 86/55/54 85/222/54 88/183/54
f 86/55/55 69/54/55 68/80/55 83/83/55
f 80/103/4 89/102/4 88/58/4 81/57/4
f 95/72/44 90/71/44 89/184/44 91/223/44
f 99/53/56 87/56/56 90/71/56 96/70/56
f 58/98/1 98/100/1 97/52/1 59/51/1
f 98/100/57 70/99/57 69/224/57 99/225/57
f 104/50/47 97/52/47 96/226/47 100/227/47
f 105/77/1 103/79/1 102/96/1 106/95/1
f 59/51/1 104/50/1 103/79/1 60/78/1
f 111/97/57 102/96/57 101/228/57 109/229/57
f 94/75/56 101/74/56 100/69/56 95/72/56
f 106/95/47 111/97/47 110/230/47 107/231/47
f 109/73/56 112/76/56 114/86/56 110/85/56
f 115/87/44 114/86/44 113/232/44 116/201/44
f 112/76/54 94/75/54 93/233/54 113/200/54
f 78/91/58 118/90/58 117/234/58 79/235/58
f 116/92/4 93/94/4 92/64/4 117/63/4
f 107/84/59 115/87/59 118/90/59 108/89/59
f 60/78/60 105/77/60 108/198/60 61/236/60
f 79/65/4 92/64/4 91/101/4 80/103/4
f 32/111/58 77/110/58 76/237/58 33/238/58
f 75/47/4 37/49/4 36/29/4 76/28/4
f 77/110/6 62/109/6 61/88/6 78/91/6
f 57/41/1 67/43/1 70/99/1 58/98/1
f 47/39/60 55/38/60 62/164/60 48/239/60
f 6/36/60 45/35/60 49/153/60 7/240/60
f 48/108/6 32/111/6 31/33/6 49/32/6
f 33/30/4 36/29/4 35/21/4 34/23/4
f 17/34/58 31/33/58 30/241/58 18/242/58
f 7/31/61 17/34/61 16/10/61 8/9/61
f 4/117/1 9/122/1 12/2/1 5/1/1
f 4/117/1 3/204/1 9/122/1
