<?xml version="1.0" encoding="UTF-8" standalone="no"?>
<!-- Created with Inkscape (http://www.inkscape.org/) -->

<svg
   xmlns:dc="http://purl.org/dc/elements/1.1/"
   xmlns:cc="http://creativecommons.org/ns#"
   xmlns:rdf="http://www.w3.org/1999/02/22-rdf-syntax-ns#"
   xmlns:svg="http://www.w3.org/2000/svg"
   xmlns="http://www.w3.org/2000/svg"
   xmlns:sodipodi="http://sodipodi.sourceforge.net/DTD/sodipodi-0.dtd"
   xmlns:inkscape="http://www.inkscape.org/namespaces/inkscape"
   width="251.48264mm"
   height="64.655502mm"
   viewBox="0 0 251.48264 64.655502"
   version="1.1"
   id="svg2443"
   inkscape:version="0.92.4 (5da689c313, 2019-01-14)"
   sodipodi:docname="dc-logo.svg">
  <defs
     id="defs2437" />
  <sodipodi:namedview
     id="base"
     pagecolor="#ffffff"
     bordercolor="#666666"
     borderopacity="1.0"
     inkscape:pageopacity="0.0"
     inkscape:pageshadow="2"
     inkscape:zoom="0.7"
     inkscape:cx="428.3265"
     inkscape:cy="44.814837"
     inkscape:document-units="mm"
     inkscape:current-layer="layer1"
     showgrid="false"
     inkscape:window-width="1920"
     inkscape:window-height="1017"
     inkscape:window-x="-8"
     inkscape:window-y="-8"
     inkscape:window-maximized="1" />
  <metadata
     id="metadata2440">
    <rdf:RDF>
      <cc:Work
         rdf:about="">
        <dc:format>image/svg+xml</dc:format>
        <dc:type
           rdf:resource="http://purl.org/dc/dcmitype/StillImage" />
        <dc:title></dc:title>
      </cc:Work>
    </rdf:RDF>
  </metadata>
  <g
     inkscape:label="Layer 1"
     inkscape:groupmode="layer"
     id="layer1"
     transform="translate(25.199686,-62.832963)">
    <g
       id="g2405"
       transform="matrix(0.81202456,0,0,0.81202456,-1497.7748,64.953389)">
      <g
         transform="matrix(1.3583261,0,0,1.3583261,1515.4391,-927.74882)"
         id="g2360"
         style="fill:#000000;fill-opacity:1">
        <path
           id="path2302"
           d="m 230.40389,699.70451 c 0,0 -10.99984,-1.6e-4 -10.99984,10.99985 v 17.99992 c 0,11 10.99984,11.00037 10.99984,11.00037 h 28.99979 v -7.00008 h -28.99979 c 0,0 -3.99974,0 -3.99975,-4.00029 v -17.99992 c 10e-6,-4 3.99975,-3.99976 3.99975,-3.99976 h 28.99979 v -7.00009 z"
           style="opacity:1;vector-effect:none;fill:#000000;fill-opacity:1;fill-rule:nonzero;stroke:none;stroke-width:0.08947952;stroke-linecap:square;stroke-linejoin:miter;stroke-miterlimit:4;stroke-dasharray:none;stroke-dashoffset:0;stroke-opacity:1;paint-order:stroke fill markers"
           inkscape:connector-curvature="0" />
        <path
           id="path2306"
           d="m 266.40376,699.70451 v 28.99977 c 0,11 11.00037,11.00037 11.00037,11.00037 h 28.99978 v -7.00008 h -28.99978 c 0,0 -4.00027,0 -4.00027,-4.00029 v -28.99977 z"
           style="opacity:1;vector-effect:none;fill:#000000;fill-opacity:1;fill-rule:nonzero;stroke:none;stroke-width:0.08514694;stroke-linecap:square;stroke-linejoin:miter;stroke-miterlimit:4;stroke-dasharray:none;stroke-dashoffset:0;stroke-opacity:1;paint-order:stroke fill markers"
           inkscape:connector-curvature="0" />
        <path
           id="path2313"
           d="m 324.40384,699.70451 c 0,0 -10.99984,-1.6e-4 -10.99984,10.99985 v 17.99992 c 0,11 10.99984,11.00037 10.99984,11.00037 h 17.99994 c 0,0 11.00036,0 11.00036,-11.00037 v -17.99992 c 0,-11.00001 -11.00036,-10.99985 -11.00036,-10.99985 z m 0,7.00009 h 17.99994 c 0,0 4.00026,-2.4e-4 4.00027,3.99976 v 17.99992 c -10e-6,4 -4.00027,4.00029 -4.00027,4.00029 h -17.99994 c 0,0 -3.99974,0 -3.99975,-4.00029 v -17.99992 c 1e-5,-4 3.99975,-3.99976 3.99975,-3.99976 z"
           style="opacity:1;vector-effect:none;fill:#000000;fill-opacity:1;fill-rule:nonzero;stroke:none;stroke-width:0.07049545;stroke-linecap:square;stroke-linejoin:miter;stroke-miterlimit:4;stroke-dasharray:none;stroke-dashoffset:0;stroke-opacity:1;paint-order:stroke fill markers"
           inkscape:connector-curvature="0" />
        <path
           id="path2351"
           d="m 360.4037,699.70451 v 28.99977 c 0,11 11.00037,11.00037 11.00037,11.00037 H 389.404 c 0,0 10.99986,0 10.99986,-11.00037 v -28.99977 h -7.00011 v 28.99977 c 0,4 -3.99975,4.00029 -3.99975,4.00029 h -17.99993 c 0,0 -4.00026,0 -4.00026,-4.00029 v -28.99977 z"
           style="opacity:1;vector-effect:none;fill:#000000;fill-opacity:1;fill-rule:nonzero;stroke:none;stroke-width:0.08514689;stroke-linecap:square;stroke-linejoin:miter;stroke-miterlimit:4;stroke-dasharray:none;stroke-dashoffset:0;stroke-opacity:1;paint-order:stroke fill markers"
           inkscape:connector-curvature="0" />
        <path
           id="path2358"
           d="m 407.40385,699.7045 v 40.00014 h 7.00008 21.99971 c 0,0 11.00034,0 11.00034,-11.00037 v -17.99992 c 0,-11.00001 -11.00034,-10.99985 -11.00034,-10.99985 h -21.99971 z m 7.00008,7.00009 h 21.99971 c 0,0 4.00026,-2.4e-4 4.00026,3.99976 v 17.99992 c 0,4 -4.00026,4.00029 -4.00026,4.00029 h -21.99971 z"
           style="opacity:1;vector-effect:none;fill:#000000;fill-opacity:1;fill-rule:nonzero;stroke:none;stroke-width:0.07793564;stroke-linecap:square;stroke-linejoin:miter;stroke-miterlimit:4;stroke-dasharray:none;stroke-dashoffset:0;stroke-opacity:1;paint-order:stroke fill markers"
           inkscape:connector-curvature="0" />
      </g>
      <g
         style="fill:#ffffff;fill-opacity:1"
         id="g2370"
         transform="matrix(1.3583261,0,0,1.3583261,1219.0495,-458.13051)">
        <path
           inkscape:connector-curvature="0"
           style="fill:#000000;fill-opacity:1;stroke:none;stroke-width:0.99999994px;stroke-linecap:butt;stroke-linejoin:miter;stroke-opacity:1"
           d="m 156.83594,2452.1309 v 7.5586 30.2363 h 7.55859 v -7.5586 l 11.33789,7.5586 h 7.56055 v -3.7793 l -11.33789,-7.5606 h -0.002 -0.002 v -7.5586 h -7.55664 v -11.3378 -7.5586 z m 15.11914,26.455 h 3.7793 c 7.5586,0 7.55859,-7.5586 7.55859,-7.5586 v -11.3378 h -0.002 c 0,0 0.002,-7.5586 -7.55664,-7.5586 h -3.7793 -0.002 -7.55664 v 7.5586 h 7.5586 3.7793 v 11.3378 h -3.7793 z"
           transform="matrix(0.26458333,0,0,0.26458333,439.46746,-313.43865)"
           id="path2368" />
      </g>
      <path
         id="path2379"
         d="M 1835.8738,-2.6101912 V 10.972948 h 2.7164 2.7172 c 0,0 4.0748,2.44e-4 4.0748,-4.0747342 h -2.7165 c 0,1.3583261 -1.3583,1.3582446 -1.3583,1.3582446 h -2.7172 V 0.106298 h 2.7172 c 0,0 1.3583,-8.15e-5 1.3583,1.3582446 V 6.897521 h 2.7165 V 1.4645426 c 0,-4.0749783 -4.0748,-4.0747338 -4.0748,-4.0747338 h -2.7172 z"
         style="opacity:1;vector-effect:none;fill:#000000;fill-opacity:1;fill-rule:nonzero;stroke:none;stroke-width:0.0726056;stroke-linecap:square;stroke-linejoin:miter;stroke-miterlimit:4;stroke-dasharray:none;stroke-dashoffset:0;stroke-opacity:1;paint-order:stroke fill markers"
         inkscape:connector-curvature="0" />
      <path
         id="path2381"
         d="M 1908.8356,-2.6101912 V 0.106298 h 3.3953 v 8.1501604 h -3.3953 v 2.7164896 h 3.3953 2.7172 3.3952 V 8.2564584 h -3.3952 V 0.106298 h 3.3952 v -2.7164892 h -3.3952 -2.7172 z"
         style="opacity:1;vector-effect:none;fill:#000000;fill-opacity:1;fill-rule:nonzero;stroke:none;stroke-width:0.0726056;stroke-linecap:square;stroke-linejoin:miter;stroke-miterlimit:4;stroke-dasharray:none;stroke-dashoffset:0;stroke-opacity:1;paint-order:stroke fill markers"
         inkscape:connector-curvature="0" />
      <path
         id="path2383"
         d="M 1945.3159,-2.6101912 V 10.972948 h 2.7172 V 5.5392764 h 3.3959 V 2.8227872 h -3.3959 V 0.106298 h 6.7912 v -2.7164892 h -6.7912 z"
         style="opacity:1;vector-effect:none;fill:#000000;fill-opacity:1;fill-rule:nonzero;stroke:none;stroke-width:0.0726056;stroke-linecap:square;stroke-linejoin:miter;stroke-miterlimit:4;stroke-dasharray:none;stroke-dashoffset:0;stroke-opacity:1;paint-order:stroke fill markers"
         inkscape:connector-curvature="0" />
      <path
         id="path2385"
         d="M 1981.7968,-2.6101912 V 0.106298 h 3.396 v 10.86665 h 2.7164 V 0.106298 h 3.396 v -2.7164892 h -3.396 -2.7164 z"
         style="opacity:1;vector-effect:none;fill:#000000;fill-opacity:1;fill-rule:nonzero;stroke:none;stroke-width:0.0726056;stroke-linecap:square;stroke-linejoin:miter;stroke-miterlimit:4;stroke-dasharray:none;stroke-dashoffset:0;stroke-opacity:1;paint-order:stroke fill markers"
         inkscape:connector-curvature="0" />
      <path
         id="path2387"
         d="M 2018.2778,-2.6101912 V 0.106298 h 3.3959 v 8.1501604 h -3.3959 v 2.7164896 h 3.3959 2.7165 3.3959 V 8.2564584 h -3.3959 V 0.106298 h 3.3959 v -2.7164892 h -3.3959 -2.7165 z"
         style="opacity:1;vector-effect:none;fill:#000000;fill-opacity:1;fill-rule:nonzero;stroke:none;stroke-width:0.0726056;stroke-linecap:square;stroke-linejoin:miter;stroke-miterlimit:4;stroke-dasharray:none;stroke-dashoffset:0;stroke-opacity:1;paint-order:stroke fill markers"
         inkscape:connector-curvature="0" />
      <path
         id="path2389"
         d="M 2054.7587,-2.6101912 V 10.972948 h 2.7165 V 3.5022491 l 4.0747,7.4706989 h 2.7172 V -2.6101912 h -2.7172 v 7.4706849 l -4.0747,-7.4706849 z"
         style="opacity:1;vector-effect:none;fill:#000000;fill-opacity:1;fill-rule:nonzero;stroke:none;stroke-width:0.0726056;stroke-linecap:square;stroke-linejoin:miter;stroke-miterlimit:4;stroke-dasharray:none;stroke-dashoffset:0;stroke-opacity:1;paint-order:stroke fill markers"
         inkscape:connector-curvature="0" />
      <g
         style="fill:#000000;fill-opacity:1"
         id="g2393"
         transform="matrix(1.3583261,0,0,1.3583261,1219.0495,-458.13051)">
        <path
           style="opacity:1;vector-effect:none;fill:#000000;fill-opacity:1;fill-rule:nonzero;stroke:none;stroke-width:0.35619563;stroke-linecap:square;stroke-linejoin:miter;stroke-miterlimit:4;stroke-dasharray:none;stroke-dashoffset:0;stroke-opacity:1;paint-order:stroke fill markers"
           d="m 775.58789,2446.0664 c 0,0 -5.67041,0 -5.66992,5.6699 v 1.8887 3.7793 15.1172 3.7812 1.8887 c -4.9e-4,5.6699 5.66992,5.6699 5.66992,5.6699 h 1.88867 3.7793 7.56055 1.88867 c 0,0 5.67041,0 5.66992,-5.6699 v -1.8887 -3.7812 -7.5586 h -15.11719 v 7.5586 h 7.5586 v 3.7812 h -7.56055 -3.7793 v -3.7812 -15.1172 -3.7793 h 3.7793 7.56055 v 3.7793 h 7.55859 v -3.7793 -1.8887 c 4.9e-4,-5.6699 -5.66992,-5.6699 -5.66992,-5.6699 h -1.88867 -7.56055 -3.7793 z"
           transform="matrix(0.26458333,0,0,0.26458333,438.39838,-311.83503)"
           id="path2391"
           inkscape:connector-curvature="0" />
      </g>
      <path
         id="path2395"
         d="m 1828.4027,22.678078 c 0,0 -14.9414,-2.17e-4 -14.9414,14.941384 v 24.449761 c 0,14.941587 14.9414,14.942089 14.9414,14.942089 h 39.3912 v -9.508391 h -39.3912 c 0,0 -5.4329,0 -5.4329,-5.433698 V 37.619462 c 0,-5.433305 5.4329,-5.432979 5.4329,-5.432979 h 39.3912 v -9.508405 z"
         style="opacity:1;vector-effect:none;fill:#000000;fill-opacity:1;fill-rule:nonzero;stroke:none;stroke-width:0.12154237;stroke-linecap:square;stroke-linejoin:miter;stroke-miterlimit:4;stroke-dasharray:none;stroke-dashoffset:0;stroke-opacity:1;paint-order:stroke fill markers"
         inkscape:connector-curvature="0" />
      <path
         id="path2397"
         d="m 1877.3023,22.678078 v 39.391145 c 0,14.941587 14.9421,14.942089 14.9421,14.942089 h 39.3911 v -9.508391 h -39.3911 c 0,0 -5.4337,0 -5.4337,-5.433698 V 22.678078 Z"
         style="opacity:1;vector-effect:none;fill:#000000;fill-opacity:1;fill-rule:nonzero;stroke:none;stroke-width:0.11565731;stroke-linecap:square;stroke-linejoin:miter;stroke-miterlimit:4;stroke-dasharray:none;stroke-dashoffset:0;stroke-opacity:1;paint-order:stroke fill markers"
         inkscape:connector-curvature="0" />
      <path
         id="path2399"
         d="m 1956.0853,22.678078 c 0,0 -14.9414,-2.17e-4 -14.9414,14.941384 v 24.449761 c 0,14.941587 14.9414,14.942089 14.9414,14.942089 h 24.4498 c 0,0 14.9421,0 14.9421,-14.942089 V 37.619462 c 0,-14.941601 -14.9421,-14.941384 -14.9421,-14.941384 z m 0,9.508405 h 24.4498 c 0,0 5.4336,-3.26e-4 5.4337,5.432979 v 24.449761 c -1e-4,5.433304 -5.4337,5.433698 -5.4337,5.433698 h -24.4498 c 0,0 -5.4329,0 -5.433,-5.433698 V 37.619462 c 10e-5,-5.433305 5.433,-5.432979 5.433,-5.432979 z"
         style="opacity:1;vector-effect:none;fill:#000000;fill-opacity:1;fill-rule:nonzero;stroke:none;stroke-width:0.09575581;stroke-linecap:square;stroke-linejoin:miter;stroke-miterlimit:4;stroke-dasharray:none;stroke-dashoffset:0;stroke-opacity:1;paint-order:stroke fill markers"
         inkscape:connector-curvature="0" />
      <path
         id="path2401"
         d="m 2004.9849,22.678078 v 39.391145 c 0,14.941587 14.942,14.942089 14.942,14.942089 h 24.4498 c 0,0 14.9414,0 14.9414,-14.942089 V 22.678078 h -9.5084 v 39.391145 c 0,5.433304 -5.433,5.433698 -5.433,5.433698 h -24.4498 c 0,0 -5.4336,0 -5.4336,-5.433698 V 22.678078 Z"
         style="opacity:1;vector-effect:none;fill:#000000;fill-opacity:1;fill-rule:nonzero;stroke:none;stroke-width:0.11565724;stroke-linecap:square;stroke-linejoin:miter;stroke-miterlimit:4;stroke-dasharray:none;stroke-dashoffset:0;stroke-opacity:1;paint-order:stroke fill markers"
         inkscape:connector-curvature="0" />
      <path
         id="path2403"
         d="m 2068.8264,22.678065 v 54.333234 h 9.5084 29.8828 c 0,0 14.942,0 14.942,-14.94209 V 37.619448 c 0,-14.941601 -14.942,-14.941383 -14.942,-14.941383 h -29.8828 z m 9.5084,9.508405 h 29.8828 c 0,0 5.4336,-3.26e-4 5.4336,5.432978 v 24.449761 c 0,5.433305 -5.4336,5.433698 -5.4336,5.433698 h -29.8828 z"
         style="opacity:1;vector-effect:none;fill:#000000;fill-opacity:1;fill-rule:nonzero;stroke:none;stroke-width:0.10586202;stroke-linecap:square;stroke-linejoin:miter;stroke-miterlimit:4;stroke-dasharray:none;stroke-dashoffset:0;stroke-opacity:1;paint-order:stroke fill markers"
         inkscape:connector-curvature="0" />
    </g>
  </g>
</svg>
