<?xml version="1.0" encoding="UTF-8" standalone="no"?>
<!-- Created with Inkscape (http://www.inkscape.org/) -->

<svg
   width="139.99973mm"
   height="19.99984mm"
   viewBox="0 0 139.99973 19.99984"
   version="1.1"
   id="svg1"
   inkscape:version="1.3 (0e150ed6c4, 2023-07-21)"
   sodipodi:docname="prelimlogo.svg"
   xmlns:inkscape="http://www.inkscape.org/namespaces/inkscape"
   xmlns:sodipodi="http://sodipodi.sourceforge.net/DTD/sodipodi-0.dtd"
   xmlns="http://www.w3.org/2000/svg"
   xmlns:svg="http://www.w3.org/2000/svg">
  <sodipodi:namedview
     id="namedview1"
     pagecolor="#ffffff"
     bordercolor="#666666"
     borderopacity="1.0"
     inkscape:showpageshadow="2"
     inkscape:pageopacity="0.0"
     inkscape:pagecheckerboard="0"
     inkscape:deskcolor="#d1d1d1"
     inkscape:document-units="mm"
     inkscape:zoom="1.3736953"
     inkscape:cx="231.85637"
     inkscape:cy="33.850301"
     inkscape:window-width="1920"
     inkscape:window-height="1009"
     inkscape:window-x="-8"
     inkscape:window-y="406"
     inkscape:window-maximized="1"
     inkscape:current-layer="layer1" />
  <defs
     id="defs1" />
  <g
     inkscape:label="Layer 1"
     inkscape:groupmode="layer"
     id="layer1"
     transform="translate(-46.670413,-161.82766)">
    <path
       id="path55"
       style="fill:#ffffff;fill-opacity:1;stroke:none;stroke-width:7.9375;stroke-linecap:round;stroke-dashoffset:498.898;paint-order:fill markers stroke"
       d="m 158.78657,161.82769 c -5.48433,6e-5 -9.93009,4.44582 -9.93014,9.93014 5e-5,5.48433 4.44582,9.9306 9.93014,9.93066 3.13151,-6.1e-4 6.03041,-1.47461 7.88376,-3.89692 v 4.03593 h 9.84694 l -0.49558,-7.56594 c 0,0 1.50994,4.0316 2.83187,7.56594 h 7.81658 v -6.54947 c -3.51711,-1.31977 -10.64845,-3.98477 -10.64845,-3.98477 0,0 5.92925,-2.21765 9.73223,-3.64267 -1.37716,-2.97966 -4.12895,-5.09371 -7.36286,-5.6565 -1.10947,2.96826 -2.36937,6.33088 -2.36937,6.33088 l 0.4253,-6.49728 h -9.77666 v 3.89692 c -1.87816,-2.45517 -4.79241,-3.89591 -7.88376,-3.89692 z m -0.76894,10.67635 8.6527,0.0202 v 2.98949 z" />
    <path
       id="path52"
       style="fill:#ffffff;stroke-width:8.4903;stroke-linecap:round;stroke-dashoffset:498.898;paint-order:fill markers stroke;fill-opacity:1"
       d="m 56.67032,161.82769 c -0.476208,0 -0.95181,0.034 -1.423169,0.1018 -0.471374,0.0678 -0.937303,0.16916 -1.39423,0.30334 -0.456929,0.13418 -0.90369,0.30083 -1.336869,0.49868 -0.433118,0.19779 -0.851556,0.42627 -1.25212,0.68368 -0.400722,0.25734 -0.78255,0.54298 -1.142566,0.85473 -0.359845,0.31196 -0.696945,0.64924 -1.008724,1.00924 -0.31191,0.35983 -0.59772,0.74149 -0.855245,1.14205 -0.257412,0.40056 -0.485887,0.819 -0.683679,1.25212 -0.197846,0.43318 -0.364497,0.87994 -0.498678,1.33687 -0.134008,0.45694 -0.235207,0.92287 -0.302824,1.39423 -0.06778,0.47136 -0.101798,0.94696 -0.101803,1.42317 5e-6,0.47621 0.03403,0.95181 0.101803,1.42317 0.06762,0.47135 0.168816,0.93729 0.302824,1.39423 0.134181,0.45693 0.300832,0.90369 0.498678,1.33686 0.06697,0.12915 0.136749,0.25682 0.209289,0.38293 l 10.327538,-0.67593 c 0,0 -3.694263,1.37886 -7.143236,2.66857 -0.522726,0.19547 -0.865482,0.32431 -1.363224,0.51056 0.166059,0.17868 0.338603,0.35122 0.517281,0.51728 0.360016,0.31175 0.741844,0.59739 1.142566,0.85473 0.400564,0.25741 0.819002,0.48589 1.25212,0.68368 0.433179,0.19785 0.87994,0.3645 1.336869,0.49868 0.456927,0.13418 0.922856,0.23555 1.39423,0.30334 0.471359,0.0678 0.946961,0.1018 1.423169,0.1018 0.476207,0 0.951805,-0.034 1.423165,-0.1018 0.47138,-0.0678 0.93731,-0.16916 1.39423,-0.30334 0.45693,-0.13418 0.90369,-0.30083 1.33687,-0.49868 0.43312,-0.19779 0.85156,-0.42627 1.25212,-0.68368 0.40055,-0.25736 0.7822,-0.543 1.14205,-0.85473 0.35985,-0.31196 0.69695,-0.64924 1.00873,-1.00924 0.31191,-0.35983 0.59772,-0.74149 0.85524,-1.14205 0.25741,-0.40055 0.48589,-0.819 0.68368,-1.25212 0.14337,-0.3139 0.26453,-0.63689 0.37465,-0.96376 v 6.8094 h 7.54838 l -0.74879,-11.44013 c 0,0 2.99316,8.01855 4.27777,11.44013 h 8.92246 v -7.07812 c 1.26926,4.02234 5.02894,6.93855 9.47074,6.9386 3.13151,-6.2e-4 6.030415,-1.4741 7.883755,-3.89641 v 4.03593 h 9.84695 l -0.49558,-7.56594 2.83187,7.56594 h 13.56506 l -0.22169,-8.32197 c 0,0 2.4946,4.92595 3.76979,8.32197 h 7.78868 l -0.21859,-8.32197 c 0,0 2.4946,4.92592 3.76979,8.32197 h 7.30085 l -7.3086,-16.83256 c -0.87573,0.2478 -1.7812,0.37489 -2.69131,0.37775 -2.85366,-0.003 -5.57006,-1.22545 -7.46518,-3.35896 h -0.003 l 0.46767,8.73176 c 0,0 -1.89961,-5.08788 -3.33313,-8.9178 h -7.60367 v 13.45034 c -3.5171,-1.31977 -10.64844,-3.98477 -10.64844,-3.98477 0,0 5.92927,-2.21765 9.73222,-3.64267 -0.86072,-1.86229 -2.25872,-3.38627 -3.97547,-4.4049 -0.17167,-0.10186 -0.34616,-0.19883 -0.524,-0.29042 -0.17783,-0.0916 -0.35903,-0.17793 -0.5426,-0.2589 -0.18356,-0.081 -0.36976,-0.15632 -0.55862,-0.22634 -0.18886,-0.07 -0.38041,-0.13453 -0.57413,-0.19327 -0.19371,-0.0587 -0.38942,-0.11204 -0.58756,-0.15917 -0.19813,-0.0471 -0.39836,-0.0883 -0.60048,-0.1235 -1.10945,2.96826 -2.36936,6.33088 -2.36936,6.33088 l 0.4253,-6.49728 h -9.77667 v 3.89692 c -1.87816,-2.45516 -4.792405,-3.89591 -7.883755,-3.89692 -4.44182,5e-5 -8.2015,2.91676 -9.47074,6.93911 v -4.59352 a 10,10 0 0 1 -1.04387,0.0749 10,10 0 0 1 -6.39806,-2.32957 l 0.65164,9.95443 c 0,0 -2.32784,-6.23541 -3.75532,-10.04538 h -9.45421 v 6.86366 l -10.910957,0.42272 c 0,0 3.694257,-1.37887 7.143237,-2.66857 0.82456,-0.30833 1.40756,-0.52705 2.15025,-0.80512 -0.0862,-0.11072 -0.17479,-0.21961 -0.26562,-0.3266 -0.11015,-0.12808 -0.22353,-0.25335 -0.34002,-0.37569 -0.11633,-0.12255 -0.23574,-0.24213 -0.35812,-0.35863 -0.12235,-0.11633 -0.24762,-0.22953 -0.37569,-0.33951 -0.12819,-0.10992 -0.25915,-0.21659 -0.39274,-0.31988 -0.1337,-0.10352 -0.26999,-0.20363 -0.40876,-0.30024 -0.13853,-0.0964 -0.27948,-0.18928 -0.42272,-0.27854 -0.14335,-0.0895 -0.28896,-0.17527 -0.43666,-0.25735 -0.14769,-0.082 -0.29742,-0.16021 -0.44907,-0.23461 -0.15167,-0.0743 -0.3052,-0.1448 -0.46044,-0.21135 -0.15514,-0.0667 -0.31194,-0.12939 -0.47025,-0.18811 -0.15845,-0.0587 -0.31835,-0.11327 -0.47956,-0.16381 -0.16124,-0.0505 -0.32372,-0.0968 -0.48731,-0.13901 -0.16351,-0.0424 -0.32806,-0.0806 -0.49351,-0.11472 -0.16544,-0.034 -0.33172,-0.0638 -0.49868,-0.0894 -0.16703,-0.0256 -0.33469,-0.047 -0.50281,-0.0641 -0.16794,-0.017 -0.33629,-0.0297 -0.504876,-0.0382 -0.168674,-0.009 -0.337537,-0.0129 -0.506429,-0.0129 z m 38.172345,10.67635 8.652705,0.0202 v 2.98949 z"
       inkscape:export-filename="path52.png"
       inkscape:export-xdpi="92.891609"
       inkscape:export-ydpi="92.891609" />
  </g>
</svg>
