<?xml version="1.0" encoding="UTF-8" standalone="no"?>
<!-- Created with Inkscape (http://www.inkscape.org/) -->

<svg
   width="483.22357mm"
   height="301.72733mm"
   viewBox="0 0 483.22359 301.72729"
   version="1.1"
   id="svg8"
   inkscape:version="1.1 (c68e22c387, 2021-05-23)"
   sodipodi:docname="be-logo.svg"
   inkscape:export-filename="C:\Users\rowan\Dropbox\BlueEnergy\logo\374x448_1.png"
   inkscape:export-xdpi="12.87554"
   inkscape:export-ydpi="12.87554"
   xmlns:inkscape="http://www.inkscape.org/namespaces/inkscape"
   xmlns:sodipodi="http://sodipodi.sourceforge.net/DTD/sodipodi-0.dtd"
   xmlns:xlink="http://www.w3.org/1999/xlink"
   xmlns="http://www.w3.org/2000/svg"
   xmlns:svg="http://www.w3.org/2000/svg"
   xmlns:rdf="http://www.w3.org/1999/02/22-rdf-syntax-ns#"
   xmlns:cc="http://creativecommons.org/ns#"
   xmlns:dc="http://purl.org/dc/elements/1.1/">
  <defs
     id="defs2">
    <linearGradient
       inkscape:collect="always"
       id="linearGradient975">
      <stop
         style="stop-color:#f4ead4;stop-opacity:1"
         offset="0"
         id="stop971" />
      <stop
         style="stop-color:#efe0c0;stop-opacity:0;"
         offset="1"
         id="stop973" />
    </linearGradient>
    <linearGradient
       id="linearGradient9818"
       inkscape:collect="always">
      <stop
         id="stop9814"
         offset="0"
         style="stop-color:#ffffff;stop-opacity:1" />
      <stop
         id="stop9816"
         offset="1"
         style="stop-color:#4ce6f6;stop-opacity:1" />
    </linearGradient>
    <linearGradient
       id="linearGradient1646"
       inkscape:collect="always">
      <stop
         id="stop1642"
         offset="0"
         style="stop-color:#4072af;stop-opacity:1" />
      <stop
         id="stop1644"
         offset="1"
         style="stop-color:#f0d8e6;stop-opacity:1" />
    </linearGradient>
    <linearGradient
       inkscape:collect="always"
       id="linearGradient1552">
      <stop
         style="stop-color:#6792c7;stop-opacity:1;"
         offset="0"
         id="stop1548" />
      <stop
         style="stop-color:#f0d8e6;stop-opacity:1"
         offset="1"
         id="stop1550" />
    </linearGradient>
    <mask
       maskUnits="userSpaceOnUse"
       id="mask4531">
      <rect
         style="fill:#e8ff00;fill-opacity:1;stroke:none;stroke-width:0.26458332"
         id="rect4533"
         width="80.180862"
         height="147.53278"
         x="74.835464"
         y="98.686012" />
    </mask>
    <mask
       maskUnits="userSpaceOnUse"
       id="mask6566">
      <rect
         style="opacity:1;fill:#ffffff;fill-opacity:1;stroke:none;stroke-width:2;stroke-linecap:butt;stroke-linejoin:round;stroke-miterlimit:4;stroke-dasharray:none;stroke-opacity:1;paint-order:stroke fill markers"
         id="rect6568"
         width="160.36172"
         height="60.93745"
         x="292.39288"
         y="469.65613" />
    </mask>
    <linearGradient
       inkscape:collect="always"
       xlink:href="#linearGradient1552"
       id="linearGradient1554"
       x1="408.10254"
       y1="127.3698"
       x2="408.10254"
       y2="235.3878"
       gradientUnits="userSpaceOnUse" />
    <linearGradient
       inkscape:collect="always"
       xlink:href="#linearGradient1646"
       id="linearGradient1638"
       gradientUnits="userSpaceOnUse"
       x1="408.10254"
       y1="127.3698"
       x2="408.10254"
       y2="222.16388"
       gradientTransform="matrix(0.59828818,0,0,0.85748235,166.43054,35.826495)" />
    <linearGradient
       inkscape:collect="always"
       xlink:href="#linearGradient9818"
       id="linearGradient9820"
       gradientUnits="userSpaceOnUse"
       gradientTransform="matrix(6.309729,0,0,7.2726952,-2868.9852,-1602.3829)"
       x1="394.67047"
       y1="296.62231"
       x2="389.41916"
       y2="224.66736" />
    <radialGradient
       inkscape:collect="always"
       xlink:href="#linearGradient975"
       id="radialGradient977"
       cx="892.10071"
       cy="1968.144"
       fx="892.10071"
       fy="1968.144"
       r="529.16669"
       gradientTransform="matrix(1,0,0,0.31677105,0,1344.6929)"
       gradientUnits="userSpaceOnUse" />
  </defs>
  <sodipodi:namedview
     id="base"
     pagecolor="#ffffff"
     bordercolor="#666666"
     borderopacity="1.0"
     inkscape:pageopacity="0.0"
     inkscape:pageshadow="2"
     inkscape:zoom="0.32000002"
     inkscape:cx="559.37497"
     inkscape:cy="626.56247"
     inkscape:document-units="mm"
     inkscape:current-layer="g3954"
     showgrid="false"
     inkscape:window-width="1920"
     inkscape:window-height="1017"
     inkscape:window-x="-8"
     inkscape:window-y="-8"
     inkscape:window-maximized="1"
     showguides="true"
     inkscape:pagecheckerboard="0" />
  <metadata
     id="metadata5">
    <rdf:RDF>
      <cc:Work
         rdf:about="">
        <dc:format>image/svg+xml</dc:format>
        <dc:type
           rdf:resource="http://purl.org/dc/dcmitype/StillImage" />
        <dc:title />
      </cc:Work>
    </rdf:RDF>
  </metadata>
  <g
     inkscape:label="Layer 1"
     inkscape:groupmode="layer"
     id="layer1"
     transform="translate(-3059.5227,-656.52526)">
    <path
       style="fill:#000000;stroke-width:12.5"
       d=""
       id="path5128"
       inkscape:connector-curvature="0" />
    <g
       inkscape:export-ydpi="24.200001"
       inkscape:export-xdpi="24.200001"
       inkscape:export-filename="C:\Users\rowan\Dropbox\BlueEnergy\logo\600x900.png"
       transform="matrix(0.89291449,0,0,0.89291449,2482.1457,-810.98642)"
       id="g3954">
      <g
         transform="translate(0,-17.991672)"
         id="g3872">
        <path
           inkscape:connector-curvature="0"
           style="fill:none;fill-opacity:1;stroke:#000000;stroke-width:9.83699989;stroke-linecap:round;stroke-linejoin:round;stroke-miterlimit:4;stroke-dasharray:none;stroke-opacity:1;paint-order:stroke fill markers"
           d="m 1018.0011,1707.0271 -12.7605,12.7599 -12.75994,12.7605 v 7.6419 29.4881 7.6419 29.4886 7.6415 l 12.65144,12.6519 12.6519,12.6514 h 29.1006 29.101 l 8.629,-8.6382 8.6284,-8.6382 v -7.642 -0.9549 -7.6419 c 0,-8.3681 -0.012,-8.6115 -0.4501,-9.1685 l -0.4501,-0.572 h -28.3756 -28.376 l -3.6396,-3.6355 -3.6395,-3.6349 v -12.0158 -7.6419 -12.0158 l 3.531,-3.5264 3.5316,-3.5264 h 11.0184 11.0185 v 2.2438 l -3.6572,3.6519 -3.6571,3.6525 -8.1225,2.033 c -6.588,1.6488 -8.1944,2.1215 -8.5039,2.5037 -0.3367,0.4158 -0.3812,0.9987 -0.3783,4.9537 10e-4,1.499 0.033,2.8148 0.077,3.6985 -0.064,0.6739 -0.079,1.8095 -0.077,3.9429 0,2.4651 0.081,4.6041 0.1757,4.7532 0.2246,0.3535 7.1061,7.3194 8.2667,8.368 l 0.8935,0.8077 h 16.7721 16.7721 l 8.6351,-8.6352 8.6352,-8.6351 v -7.6419 -9.1829 -7.6419 -9.1829 -7.6419 l -12.7605,-12.7605 -12.7599,-12.7599 h -24.861 z"
           id="path3864" />
        <path
           inkscape:connector-curvature="0"
           style="fill:#4ce6f6;fill-opacity:1;stroke:#4ce6f6;stroke-width:3.27900004;stroke-linecap:round;stroke-linejoin:round;stroke-miterlimit:4;stroke-dasharray:none;stroke-opacity:1;paint-order:fill markers stroke"
           d="m 1084.6144,1831.1145 8.6285,-8.6384 v -8.5965 c 0,-8.3681 -0.012,-8.6117 -0.4501,-9.1687 l -0.4501,-0.5722 h -28.3756 -28.3756 l -3.6398,-3.6351 -3.6398,-3.635 v -19.6579 -19.6578 l 3.5313,-3.5264 3.5313,-3.5264 h 11.0184 11.0185 v 4.9428 4.9428 l -3.6572,3.6524 -3.6571,3.6524 -8.1223,2.0328 c -6.5879,1.6489 -8.1943,2.1219 -8.5038,2.5041 -0.3366,0.4158 -0.3811,0.9982 -0.3782,4.9532 0,2.4651 0.081,4.6041 0.1755,4.7532 0.2245,0.3535 7.106,7.3193 8.2666,8.3679 l 0.8937,0.8074 h 16.7719 16.772 l 8.6351,-8.6352 8.6352,-8.6352 v -16.8248 -16.8248 l -12.7602,-12.7602 -12.7602,-12.7602 h -24.8608 -24.8607 l -12.7602,12.7602 -12.76022,12.7602 v 37.1303 37.1302 l 12.65162,12.6517 12.6517,12.6517 h 29.101 29.1011 z"
           id="path3866" />
        <path
           inkscape:connector-curvature="0"
           style="fill:#ffffff;fill-opacity:1;stroke:none;stroke-width:3.27900004;stroke-linecap:round;stroke-linejoin:round;stroke-miterlimit:4;stroke-dasharray:none;stroke-opacity:1"
           d="m 1084.6144,1823.4727 8.6285,-8.6384 v -8.5966 c 0,-8.368 -0.012,-8.6117 -0.4501,-9.1687 l -0.4501,-0.5722 h -28.3756 -28.3756 l -3.6398,-3.635 -3.6398,-3.635 v -19.6579 -19.6579 l 3.5313,-3.5263 3.5313,-3.5264 h 11.0184 11.0185 v 4.9428 4.9428 l -3.6572,3.6524 -3.6571,3.6524 -8.1223,2.0328 c -6.5879,1.6488 -8.1943,2.1218 -8.5038,2.504 -0.3367,0.4158 -0.3811,0.9983 -0.3782,4.9533 0,2.4651 0.081,4.604 0.1755,4.7532 0.2245,0.3535 7.106,7.3193 8.2666,8.3678 l 0.8937,0.8074 h 16.7719 16.772 l 8.6351,-8.6351 8.6352,-8.6352 v -16.8248 -16.8248 l -12.7602,-12.7602 -12.7602,-12.7603 h -24.8608 -24.8607 l -12.7602,12.7603 -12.76022,12.7602 v 37.1302 37.1303 l 12.65162,12.6517 12.6517,12.6516 h 29.101 29.1011 z"
           id="path3868" />
        <path
           inkscape:connector-curvature="0"
           style="fill:none;fill-opacity:1;stroke:#ffffff;stroke-width:3.27900004;stroke-linecap:round;stroke-linejoin:round;stroke-miterlimit:4;stroke-dasharray:none;stroke-opacity:1;paint-order:stroke fill markers"
           d="m 1084.6144,1823.1766 8.6285,-8.6384 v -8.5965 c 0,-8.3681 -0.012,-8.6117 -0.4501,-9.1687 l -0.4501,-0.5722 h -28.3756 -28.3757 l -3.6397,-3.6351 -3.6398,-3.635 v -19.6579 -19.6578 l 3.5313,-3.5264 3.5312,-3.5264 h 11.0185 11.0185 v 4.9428 4.9428 l -3.6572,3.6524 -3.6571,3.6524 -8.1223,2.0328 c -6.5879,1.6489 -8.1943,2.1219 -8.5038,2.5041 -0.3367,0.4158 -0.3812,0.9982 -0.3782,4.9532 0,2.4651 0.081,4.6041 0.1755,4.7532 0.2245,0.3535 7.1059,7.3193 8.2666,8.3679 l 0.8937,0.8074 h 16.7719 16.772 l 8.6351,-8.6352 8.6352,-8.6352 v -16.8248 -16.8248 l -12.7602,-12.7602 -12.7602,-12.7602 h -24.8608 -24.8607 l -12.7602,12.7602 -12.76023,12.7602 v 37.1303 37.1302 l 12.65163,12.6517 12.6517,12.6517 h 29.101 29.1011 z"
           id="path3870" />
      </g>
      <g
         transform="translate(0,-17.991672)"
         id="g3882">
        <path
           inkscape:connector-curvature="0"
           style="fill:none;fill-opacity:1;stroke:#000000;stroke-width:9.83699989;stroke-linecap:round;stroke-linejoin:round;stroke-miterlimit:4;stroke-dasharray:none;stroke-opacity:1;paint-order:stroke fill markers"
           d="m 887.92942,1698.9919 -8.58346,8.5757 -8.58398,8.5752 -0.0558,43.0878 -0.0558,43.0878 0.01,0.02 -0.01,7.6223 2.2624,4.5269 2.2624,4.5268 6.26266,6.226 6.26266,6.226 8.25222,4.1315 8.2522,4.1321 16.77625,0.012 16.77728,0.012 8.3049,-4.1439 h 5.3e-4 l 8.30493,-4.1434 6.3686,-6.3345 6.3686,-6.3345 2.1549,-4.2871 2.1549,-4.2866 v -7.6419 -43.6195 -7.6419 -43.6201 -7.6419 l -0.53277,-0.5328 -0.53332,-0.5333 h -8.74363 -8.74419 l -8.33541,8.3065 c -4.6768,4.6604 -8.46873,8.613 -8.63875,9.0051 -0.25535,0.5886 -0.30332,6.408 -0.30332,36.9259 v 7.6419 28.5848 l -3.54346,3.5207 -3.54398,3.5203 h -7.36595 -7.36648 l -3.63958,-3.6355 -3.64008,-3.6349 v -36.9425 -7.6419 -36.9424 -7.6419 l -0.53277,-0.5328 -0.53332,-0.5333 h -8.74466 z"
           id="path3874" />
        <path
           inkscape:connector-curvature="0"
           style="fill:#4ce6f6;fill-opacity:1;stroke:#4ce6f6;stroke-width:3.27900004;stroke-linecap:round;stroke-linejoin:round;stroke-miterlimit:4;stroke-dasharray:none;stroke-opacity:1;paint-order:fill markers stroke"
           d="m 946.06365,1835.6093 8.30528,-4.1436 6.36853,-6.3343 6.36853,-6.3344 2.15499,-4.2869 2.15498,-4.2868 v -51.2617 -51.2618 l -0.53301,-0.5331 -0.53302,-0.533 h -8.74401 -8.74404 l -8.33563,8.3064 c -4.67682,4.6604 -8.46862,8.6131 -8.63863,9.0052 -0.25536,0.5887 -0.30305,6.4079 -0.30305,36.9258 v 36.227 l -3.54373,3.5203 -3.54371,3.5203 h -7.36627 -7.36624 l -3.63976,-3.6351 -3.63981,-3.635 v -44.5844 -44.5844 l -0.53296,-0.5331 -0.53308,-0.533 h -8.74489 -8.74488 l -8.58348,8.5755 -8.58355,8.5756 -0.056,43.0878 -0.056,43.0878 2.26236,4.5269 2.26236,4.5268 6.26275,6.2258 6.26278,6.2258 8.25211,4.1318 8.25212,4.1318 16.77668,0.012 16.7768,0.012 8.30524,-4.1437 z"
           id="path3876" />
        <path
           inkscape:connector-curvature="0"
           style="fill:#ffffff;fill-opacity:1;stroke:none;stroke-width:3.27900004;stroke-linecap:round;stroke-linejoin:round;stroke-miterlimit:4;stroke-dasharray:none;stroke-opacity:1"
           d="m 946.06365,1827.9675 8.30528,-4.1436 6.36853,-6.3344 6.36853,-6.3343 2.15499,-4.2869 2.15498,-4.2868 v -51.2618 -51.2617 l -0.53301,-0.533 -0.53302,-0.5331 h -8.74401 -8.74404 l -8.33563,8.3064 c -4.67682,4.6604 -8.46862,8.6131 -8.63863,9.0052 -0.25536,0.5886 -0.30305,6.4079 -0.30305,36.9258 v 36.227 l -3.54373,3.5203 -3.54371,3.5202 h -7.36627 -7.36624 l -3.63976,-3.635 -3.63981,-3.635 v -44.5844 -44.5844 l -0.53296,-0.533 -0.53308,-0.5331 h -8.74489 -8.74488 l -8.58348,8.5755 -8.58355,8.5755 -0.056,43.0878 -0.056,43.0878 2.26236,4.5269 2.26236,4.5269 6.26275,6.2258 6.26278,6.2258 8.25211,4.1318 8.25212,4.1318 16.77668,0.012 16.7768,0.011 8.30524,-4.1436 z"
           id="path3878" />
        <path
           inkscape:connector-curvature="0"
           style="fill:none;fill-opacity:1;stroke:#ffffff;stroke-width:3.27900004;stroke-linecap:round;stroke-linejoin:round;stroke-miterlimit:4;stroke-dasharray:none;stroke-opacity:1;paint-order:stroke fill markers"
           d="m 946.06364,1827.6714 8.30528,-4.1436 6.36853,-6.3343 6.36853,-6.3344 2.15499,-4.2869 2.15498,-4.2868 v -51.2617 -51.2617 l -0.53301,-0.533 -0.53302,-0.533 h -8.74401 -8.74404 l -8.33563,8.3062 c -4.67682,4.6604 -8.46862,8.6131 -8.63863,9.0052 -0.25536,0.5887 -0.30305,6.4079 -0.30305,36.9258 v 36.227 l -3.54373,3.5203 -3.54371,3.5203 h -7.36627 -7.36624 l -3.63976,-3.6351 -3.63981,-3.635 v -44.5844 -44.5843 l -0.53296,-0.533 -0.53308,-0.533 h -8.74489 -8.74488 l -8.58348,8.5753 -8.58355,8.5756 -0.056,43.0878 -0.056,43.0878 2.26236,4.5269 2.26236,4.5268 6.26275,6.2258 6.26278,6.2258 8.25211,4.1318 8.25212,4.1318 16.77668,0.012 16.7768,0.012 8.30524,-4.1437 z"
           id="path3880" />
      </g>
      <g
         transform="translate(0,-17.991672)"
         id="g3892">
        <path
           inkscape:connector-curvature="0"
           style="fill:none;fill-opacity:1;stroke:#000000;stroke-width:9.83699989;stroke-linecap:round;stroke-linejoin:round;stroke-miterlimit:4;stroke-dasharray:none;stroke-opacity:1;paint-order:stroke fill markers"
           d="m 814.9685,1682.6947 -8.64031,8.6403 -8.64029,8.6403 v 2.6985 2.6986 l 1.11982,1.125 -1.11982,1.1198 v 2.6986 2.6985 l 4.01733,4.0375 4.0173,4.0375 v 46.9232 7.6419 c 0,46.7771 0.0441,54.6489 0.30903,55.1517 0.16994,0.3225 2.2038,2.4674 4.51911,4.7666 l 4.20958,4.1801 h 12.90619 12.90669 l 4.50826,-4.5041 4.50773,-4.5041 v -2.7187 -2.7182 l -1.10331,-1.1023 1.10331,-1.1022 v -2.7187 -2.7187 l -4.01733,-4.0132 -4.01785,-4.0132 v -55.2581 -7.6419 c 0,-61.603 -0.009,-62.9111 -0.41495,-63.4132 l -0.41497,-0.5126 -12.87777,-0.06 z"
           id="path3884" />
        <path
           inkscape:connector-curvature="0"
           style="fill:#4ce6f6;fill-opacity:1;stroke:#4ce6f6;stroke-width:3.27900004;stroke-linecap:round;stroke-linejoin:round;stroke-miterlimit:4;stroke-dasharray:none;stroke-opacity:1;paint-order:fill markers stroke"
           d="m 845.08116,1835.2488 4.50796,-4.5041 v -2.7187 -2.7186 l -4.01748,-4.0131 -4.01747,-4.013 v -62.9003 c 0,-61.6033 -0.009,-62.9112 -0.41501,-63.4133 l -0.41508,-0.5127 -12.87791,-0.059 -12.87789,-0.059 -8.64024,8.6403 -8.64023,8.6405 v 2.6985 2.6985 l 4.01747,4.0377 4.01742,4.0377 v 54.565 c 0,46.7771 0.0442,54.6487 0.30913,55.1515 0.16994,0.3225 2.20343,2.4675 4.51874,4.7667 l 4.20965,4.1803 h 12.90645 12.90646 z"
           id="path3886" />
        <path
           inkscape:connector-curvature="0"
           style="fill:#ffffff;fill-opacity:1;stroke:none;stroke-width:3.27900004;stroke-linecap:round;stroke-linejoin:round;stroke-miterlimit:4;stroke-dasharray:none;stroke-opacity:1"
           d="m 845.08116,1827.607 4.50796,-4.5041 v -2.7187 -2.7186 l -4.01748,-4.0131 -4.01747,-4.013 v -62.9004 c 0,-61.603 -0.009,-62.9108 -0.41501,-63.4129 l -0.41508,-0.5127 -12.87791,-0.059 -12.87789,-0.059 -8.64024,8.6403 -8.64023,8.6402 v 2.6985 2.6984 l 4.01747,4.0378 4.01742,4.0377 v 54.565 c 0,46.777 0.0442,54.6487 0.30913,55.1514 0.16994,0.3225 2.20343,2.4676 4.51874,4.7668 l 4.20965,4.1803 h 12.90645 12.90646 z"
           id="path3888" />
        <path
           inkscape:connector-curvature="0"
           style="fill:none;fill-opacity:1;stroke:#ffffff;stroke-width:3.27900004;stroke-linecap:round;stroke-linejoin:round;stroke-miterlimit:4;stroke-dasharray:none;stroke-opacity:1;paint-order:stroke fill markers"
           d="m 845.08115,1827.3109 4.50796,-4.5041 v -2.7187 -2.7186 l -4.01748,-4.0131 -4.01747,-4.013 v -62.9003 c 0,-61.603 -0.009,-62.9108 -0.41501,-63.4129 l -0.41508,-0.5127 -12.87791,-0.059 -12.87789,-0.059 -8.64024,8.6403 -8.64023,8.6402 v 2.6984 2.6985 l 4.01747,4.0377 4.01742,4.0377 v 54.565 c 0,46.7771 0.0442,54.6487 0.30913,55.1515 0.16994,0.3225 2.20343,2.4675 4.51874,4.7667 l 4.20965,4.1803 h 12.90645 12.90646 z"
           id="path3890" />
      </g>
      <g
         transform="translate(0,-17.991672)"
         id="g3902">
        <path
           inkscape:connector-curvature="0"
           style="fill:none;fill-opacity:1;stroke:#000000;stroke-width:37.17921448;stroke-linecap:round;stroke-linejoin:round;stroke-miterlimit:4;stroke-dasharray:none;stroke-opacity:1;paint-order:fill markers stroke"
           d="m 836.22461,336.94336 c -87.41167,0 -123.36988,0.2619 -125.22461,0.9082 -1.43127,0.4989 -2.96439,1.58276 -3.40625,2.40821 -0.49262,0.92107 -0.80273,17.13971 -0.80273,41.96289 v 28.88086 11.58007 28.88086 l 24.84375,24.84375 24.84179,24.84375 h 20.32617 L 747,531.07227 706.79102,571.30664 v 28.88281 150.00391 28.88281 150.00586 28.88086 l 17.05078,17.05273 17.05273,17.05274 H 912.40625 1083.918 l 63,-63 63,-62.99805 v -28.88281 -35.12891 -28.88281 -35.1289 -28.88282 l -71.6055,-71.60937 -57.1797,-57.1836 6.0801,-6.09375 0.2363,-39.17968 c 0.072,-11.94498 0.066,-22.59752 0,-30.24414 0.1174,-20.93542 0.018,-38.76751 -0.2558,-39.8711 -0.5466,-2.29493 -122.46186,-124.91222 -126.1348,-126.86133 -1.89547,-1.00573 -19.96307,-1.17773 -124.83789,-1.17773 z m -18.07227,164.30859 h 31.86524 64.67969 l -12.78125,12.79102 -41.64258,41.67187 v 10.22657 10.22461 l 4.21484,4.21484 -4.21484,4.2168 v 10.22461 10.22656 l 24.84375,24.84375 24.84179,24.8418 h 45.94532 45.9434 l 36.7324,36.72656 36.7324,36.72461 v 11.33789 l -44.5234,44.52929 -44.52348,44.52735 H 914.25 842.23438 L 842.01953,676.74219 841.80469,524.9043 824.77148,507.87109 Z"
           id="path3894"
           transform="matrix(0.26458333,0,0,0.26458333,464.53406,1577.2681)" />
        <path
           inkscape:connector-curvature="0"
           style="fill:#4ce6f6;fill-opacity:1;stroke:#4ce6f6;stroke-width:3.27900004;stroke-linecap:round;stroke-linejoin:round;stroke-miterlimit:4;stroke-dasharray:none;stroke-opacity:1;paint-order:fill markers stroke"
           d="m 767.98954,1823.0843 16.66864,-16.6686 v -16.9365 -16.9364 l -18.94539,-18.9463 -18.94535,-18.9463 2.71263,-2.719 2.71265,-2.719 0.0624,-10.3663 c 0.0345,-5.7015 0.007,-10.6106 -0.067,-10.9092 -0.14461,-0.6072 -32.40107,-33.0503 -33.37287,-33.566 -0.50151,-0.2662 -5.2821,-0.3113 -33.03023,-0.3113 -23.12767,0 -32.64153,0.069 -33.13226,0.24 -0.37869,0.132 -0.78417,0.4188 -0.90108,0.6372 -0.13034,0.2437 -0.21255,4.5349 -0.21255,11.1027 v 10.7054 l 6.57309,6.5731 6.573,6.5734 h 24.74946 24.74936 l -11.01799,11.0258 -11.018,11.0259 v 2.7055 2.7056 l 6.57309,6.573 6.57305,6.5731 h 12.1561 12.15611 l 9.71886,9.717 9.71876,9.717 v 5.3206 5.3206 l -11.78021,11.7817 -11.7802,11.7817 H 706.42938 687.3751 l -0.0567,-40.174 -0.0566,-40.174 -4.50672,-4.5067 -4.50674,-4.5067 h -2.71571 -2.71572 l -10.63901,10.6454 -10.63891,10.6455 v 47.3305 47.3306 l 4.51176,4.5118 4.51183,4.5119 h 45.37919 45.37912 z"
           id="path3896" />
        <path
           inkscape:connector-curvature="0"
           style="fill:#ffffff;fill-opacity:1;stroke:none;stroke-width:3.27900004;stroke-linecap:round;stroke-linejoin:round;stroke-miterlimit:4;stroke-dasharray:none;stroke-opacity:1"
           d="m 767.98954,1815.4425 16.66864,-16.6686 v -16.9365 -16.9364 l -18.94539,-18.9463 -18.94535,-18.9463 2.71263,-2.719 2.71265,-2.7191 0.0624,-10.3662 c 0.0345,-5.7015 0.007,-10.6106 -0.067,-10.9092 -0.14461,-0.6072 -32.40107,-33.0501 -33.37287,-33.5658 -0.50151,-0.2661 -5.2821,-0.3112 -33.03023,-0.3112 -23.12767,0 -32.64153,0.069 -33.13226,0.24 -0.37869,0.132 -0.78417,0.4188 -0.90108,0.6372 -0.13034,0.2437 -0.21255,4.5349 -0.21255,11.1027 v 10.7054 l 6.57309,6.5731 6.573,6.573 h 24.74946 24.74936 l -11.01799,11.0259 -11.018,11.0258 v 2.7056 2.7055 l 6.57309,6.5731 6.57305,6.5731 h 12.1561 12.15611 l 9.71886,9.717 9.71876,9.717 v 5.3206 5.3206 l -11.78021,11.7817 -11.7802,11.7816 H 706.42938 687.3751 l -0.0567,-40.1739 -0.0566,-40.1741 -4.50672,-4.5066 -4.50674,-4.5068 h -2.71571 -2.71572 l -10.63901,10.6455 -10.63891,10.6454 v 47.3306 47.3306 l 4.51176,4.5118 4.51183,4.5118 h 45.37919 45.37912 z"
           id="path3898" />
        <path
           inkscape:connector-curvature="0"
           style="fill:none;fill-opacity:1;stroke:#ffffff;stroke-width:3.27900004;stroke-linecap:round;stroke-linejoin:round;stroke-miterlimit:4;stroke-dasharray:none;stroke-opacity:1;paint-order:stroke fill markers"
           d="m 767.98953,1815.1464 16.66864,-16.6686 v -16.9365 -16.9364 l -18.94539,-18.9463 -18.94535,-18.9463 2.71263,-2.719 2.71265,-2.719 0.0624,-10.3663 c 0.0345,-5.7015 0.007,-10.6105 -0.067,-10.9091 -0.14461,-0.6071 -32.40107,-33.05 -33.37287,-33.5657 -0.50151,-0.2662 -5.2821,-0.3113 -33.03023,-0.3113 -23.12767,0 -32.64153,0.069 -33.13226,0.24 -0.37869,0.132 -0.78417,0.4188 -0.90108,0.6372 -0.13034,0.2437 -0.21255,4.5349 -0.21255,11.1027 v 10.7054 l 6.57309,6.5731 6.573,6.573 h 24.74946 24.74936 l -11.01799,11.0258 -11.018,11.0259 v 2.7055 2.7056 l 6.57309,6.573 6.57305,6.5731 h 12.1561 12.15611 l 9.71886,9.717 9.71876,9.717 v 5.3206 5.3206 l -11.78021,11.7817 -11.7802,11.7817 h -19.05423 -19.05428 l -0.0567,-40.174 -0.0566,-40.174 -4.50672,-4.5067 -4.50674,-4.5067 h -2.71571 -2.71572 l -10.63901,10.6454 -10.63891,10.6455 v 47.3305 47.3306 l 4.51176,4.5118 4.51183,4.5119 h 45.37919 45.37912 z"
           id="path3900" />
      </g>
      <g
         transform="translate(-17.991672,-20.637507)"
         id="g3952">
        <g
           id="g3910">
          <path
             inkscape:connector-curvature="0"
             id="path3904"
             transform="matrix(0.26458333,0,0,0.26458333,-725.03259,23.63471)"
             d="m 6350.5918,6926.0625 -2.3984,2.3984 -2.3985,2.4004 v 28.8828 126.1934 28.8828 126.1933 28.8828 l 1.7012,2.1621 1.7012,2.1622 h 33.5918 c 32.4974,0 33.6443,-0.052 35.2324,-1.6407 1.6179,-1.618 1.6406,-2.7359 1.6406,-78.1738 v -28.8828 -47.6484 l 28.9277,-28.9356 28.9278,-28.9375 h 26.4746 26.4726 v 13.2852 c 0,12.5098 0.1063,13.3947 1.7852,15.1836 l 1.7852,1.9003 h 25.4355 25.4375 l 9.5078,-9.4101 9.5078,-9.4102 0.2422,-24.3965 c 0.09,-9.0936 0.059,-15.748 -0.086,-20.1933 l 0.086,-8.6895 c 0.1625,-16.3642 -0.053,-25.1102 -0.6601,-26.5683 -0.4952,-1.1955 -8.1963,-9.4359 -17.1133,-18.3125 l -16.2129,-16.1387 h -64.3145 -64.3164 l -10.9433,10.8359 -10.9434,10.836 v -20.5762 -4.1543 -24.7285 l -2.1621,-1.7012 c -2.1049,-1.6558 -3.0276,-1.7011 -34.5352,-1.7011 z"
             style="fill:#000000;fill-opacity:1;stroke:#0f0f0f;stroke-width:37.17921448;stroke-linecap:round;stroke-linejoin:round;stroke-miterlimit:4;stroke-dasharray:none;stroke-opacity:1;paint-order:fill markers stroke" />
          <path
             inkscape:connector-curvature="0"
             id="path3906"
             transform="matrix(0.26458333,0,0,0.26458333,-725.03259,23.63471)"
             d="m 6350.5918,6926.0625 -2.3984,2.3984 -2.3985,2.4004 v 28.8828 126.1934 28.8828 126.1933 28.8828 l 1.7012,2.1621 1.7012,2.1622 h 33.5918 c 32.4974,0 33.6443,-0.052 35.2324,-1.6407 1.6179,-1.618 1.6406,-2.7359 1.6406,-78.1738 v -28.8828 -47.6484 l 28.9277,-28.9356 28.9278,-28.9375 h 26.4746 26.4726 v 13.2852 c 0,12.5098 0.1063,13.3947 1.7852,15.1836 l 1.7852,1.9003 h 25.4355 25.4375 l 9.5078,-9.4101 9.5078,-9.4102 0.2422,-24.3965 c 0.09,-9.0936 0.059,-15.748 -0.086,-20.1933 l 0.086,-8.6895 c 0.1625,-16.3642 -0.053,-25.1102 -0.6601,-26.5683 -0.4952,-1.1955 -8.1963,-9.4359 -17.1133,-18.3125 l -16.2129,-16.1387 h -64.3145 -64.3164 l -10.9433,10.8359 -10.9434,10.836 v -20.5762 -4.1543 -24.7285 l -2.1621,-1.7012 c -2.1049,-1.6558 -3.0276,-1.7011 -34.5352,-1.7011 z"
             style="fill:#4ce6f6;fill-opacity:1;stroke:none;stroke-width:12.39307117;stroke-linecap:round;stroke-linejoin:round;stroke-miterlimit:4;stroke-dasharray:none;stroke-opacity:1;paint-order:fill markers stroke" />
          <path
             inkscape:connector-curvature="0"
             id="path3908"
             d="m 973.06879,1939.9008 c 0.42807,-0.4281 0.43429,-0.7238 0.43429,-20.6834 v -20.249 l 7.65377,-7.6561 7.65375,-7.656 h 7.00456 7.00454 v 3.5149 c 0,3.3099 0.028,3.5441 0.4722,4.0174 l 0.4722,0.5026 h 6.7301 6.73 l 2.5157,-2.4898 2.5156,-2.4898 0.064,-6.4546 c 0.043,-4.3297 -0.014,-6.6438 -0.1745,-7.0296 -0.1311,-0.3163 -2.1686,-2.4967 -4.5279,-4.8453 l -4.2897,-4.2702 h -17.01673 -17.0167 l -2.89536,2.867 -2.8954,2.867 v -6.543 -6.5429 l -0.57218,-0.4501 c -0.55691,-0.4381 -0.80105,-0.4501 -9.13742,-0.4501 h -8.56527 l -0.63479,0.6348 -0.63476,0.6348 v 41.0306 41.0308 l 0.4501,0.5721 0.45011,0.5722 h 8.88777 c 8.59829,0 8.90196,-0.014 9.32215,-0.4343 z"
             style="fill:none;fill-opacity:1;stroke:#ffffff;stroke-width:3.27900004;stroke-linecap:round;stroke-linejoin:round;stroke-miterlimit:4;stroke-dasharray:none;stroke-opacity:1;paint-order:stroke fill markers" />
        </g>
        <g
           id="g3918"
           transform="matrix(0.91756324,0,0,0.91756324,77.562118,160.48567)">
          <path
             id="path3912"
             transform="matrix(0.26458333,0,0,0.26458333,-725.03259,23.63471)"
             d="m 6073.7344,6926.0625 -32.6367,32.6367 -32.6368,32.6367 v 28.8828 65.8731 28.8828 65.8711 28.8828 l 32.2168,32.2461 32.2168,32.2461 h 95.166 95.1661 l 16.8652,-16.8086 16.8672,-16.8086 0.2324,-33.2676 0.2324,-33.2676 -0.2011,-0.2012 0.2011,-28.6816 -2.041,-2.041 -2.043,-2.043 H 6275.5 6257.6602 l -15.2598,15.1856 -15.2617,15.1836 h -59.0567 -59.0586 l -13.3476,-13.3282 -13.3457,-13.3281 v -29.8027 -28.8828 -29.8028 l 13.7383,-13.7558 13.7382,-13.7578 h 27.9258 27.9238 l 13.3282,13.3476 7.0058,7.0156 h -22.4043 c -27.6322,0 -28.7903,0.062 -30.3691,1.6426 -1.5881,1.5882 -1.6406,2.7353 -1.6406,35.2324 v 28.8828 4.709 28.8828 l 2.1621,1.7012 c 2.1321,1.677 2.8442,1.7012 50.25,1.7012 h 48.0879 l 17.0527,-17.0527 17.0527,-17.0528 v -28.8828 -19.9434 -28.8828 -19.9453 -28.8828 l -32.6504,-32.6113 -32.6484,-32.6113 h -63.5742 z"
             style="fill:#000000;fill-opacity:1;stroke:#0f0f0f;stroke-width:40.51950836;stroke-linecap:round;stroke-linejoin:round;stroke-miterlimit:4;stroke-dasharray:none;stroke-opacity:1;paint-order:fill markers stroke"
             inkscape:connector-curvature="0" />
          <path
             id="path3914"
             transform="matrix(0.26458333,0,0,0.26458333,-725.03259,23.63471)"
             d="m 6073.7344,6926.0625 -32.6367,32.6367 -32.6368,32.6367 v 28.8828 65.8731 28.8828 65.8711 28.8828 l 32.2168,32.2461 32.2168,32.2461 h 95.166 95.1661 l 16.8652,-16.8086 16.8672,-16.8086 0.2324,-33.2676 0.2324,-33.2676 -0.2011,-0.2012 0.2011,-28.6816 -2.041,-2.041 -2.043,-2.043 H 6275.5 6257.6602 l -15.2598,15.1856 -15.2617,15.1836 h -59.0567 -59.0586 l -13.3476,-13.3282 -13.3457,-13.3281 v -29.8027 -28.8828 -29.8028 l 13.7383,-13.7558 13.7382,-13.7578 h 27.9258 27.9238 l 13.3282,13.3476 7.0058,7.0156 h -22.4043 c -27.6322,0 -28.7903,0.062 -30.3691,1.6426 -1.5881,1.5882 -1.6406,2.7353 -1.6406,35.2324 v 28.8828 4.709 28.8828 l 2.1621,1.7012 c 2.1321,1.677 2.8442,1.7012 50.25,1.7012 h 48.0879 l 17.0527,-17.0527 17.0527,-17.0528 v -28.8828 -19.9434 -28.8828 -19.9453 -28.8828 l -32.6504,-32.6113 -32.6484,-32.6113 h -63.5742 z"
             style="fill:#4ce6f6;fill-opacity:1;stroke:none;stroke-width:12.39307117;stroke-linecap:round;stroke-linejoin:round;stroke-miterlimit:4;stroke-dasharray:none;stroke-opacity:1;paint-order:fill markers stroke"
             inkscape:connector-curvature="0" />
          <path
             id="path3916"
             d="m 936.57514,1935.8878 4.46248,-4.4473 0.0615,-8.8022 0.0615,-8.8023 -0.54003,-0.5401 -0.54012,-0.5401 h -4.72014 -4.7201 l -4.03771,4.0174 -4.03777,4.0175 h -15.62588 -15.62586 l -3.53123,-3.5264 -3.5313,-3.5264 v -15.527 -15.5272 l 3.63508,-3.6397 3.63502,-3.6398 h 7.38833 7.38828 l 3.52644,3.5313 3.52637,3.5312 v 2.9836 2.9835 h -7.60067 c -7.31102,0 -7.61713,0.016 -8.03486,0.4343 -0.42019,0.4202 -0.43435,0.7239 -0.43435,9.3222 v 8.8878 l 0.57217,0.4501 c 0.56412,0.4437 0.75253,0.4501 13.29531,0.4501 h 12.72311 l 4.51183,-4.5119 4.51185,-4.5118 v -12.9189 -12.919 l -8.63847,-8.6284 -8.63843,-8.6285 h -16.82057 -16.82051 l -8.63518,8.6352 -8.6352,8.6351 v 25.0707 25.0706 l 8.52413,8.5319 8.52415,8.5318 h 25.1793 25.17937 z"
             style="fill:none;fill-opacity:1;stroke:#ffffff;stroke-width:3.57359576;stroke-linecap:round;stroke-linejoin:round;stroke-miterlimit:4;stroke-dasharray:none;stroke-opacity:1;paint-order:stroke fill markers"
             inkscape:connector-curvature="0" />
        </g>
        <g
           id="g3926"
           transform="matrix(0.91756324,0,0,0.91756324,76.489043,159.9565)">
          <path
             id="path3920"
             transform="matrix(0.26458333,0,0,0.26458333,-725.03259,23.63471)"
             d="m 5766.7676,6926.0625 -32.6367,32.6367 -32.6368,32.6367 v 28.8828 95.9551 28.8828 95.957 28.8828 l 1.7012,2.1621 1.7012,2.1622 h 33.5918 c 32.4975,0 33.6444,-0.052 35.2324,-1.6407 v 0 c 1.6246,-1.6248 1.6406,-2.7353 1.6406,-108.9472 v -28.8828 -78.4239 l 13.7383,-13.7558 13.7402,-13.7578 h 27.9238 27.9239 l 13.3281,13.3476 13.3281,13.3457 v 77.0703 28.8828 c 0,75.2406 0.2618,106.705 0.9063,108.5528 0.4987,1.4309 1.5826,2.9644 2.4082,3.4062 0.9074,0.4857 14.4733,0.8028 34.2949,0.8028 31.0649,0 32.897,-0.086 34.7324,-1.5684 l 1.9375,-1.5684 0.2344,-122.9824 c 0.046,-23.6059 0.05,-44.6543 0.037,-63.707 0.033,-50.9096 -0.085,-89.7361 -0.3008,-91.0293 -0.4221,-2.4302 -5.2625,-7.6543 -31.4238,-33.9141 -17.0089,-17.0729 -31.9236,-31.5693 -33.1426,-32.2148 -1.866,-0.988 -12.1761,-1.1738 -65.2383,-1.1738 z"
             style="fill:#000000;fill-opacity:1;stroke:#0f0f0f;stroke-width:40.51950836;stroke-linecap:round;stroke-linejoin:round;stroke-miterlimit:4;stroke-dasharray:none;stroke-opacity:1;paint-order:fill markers stroke"
             inkscape:connector-curvature="0" />
          <path
             id="path3922"
             transform="matrix(0.26458333,0,0,0.26458333,-725.03259,23.63471)"
             d="m 5766.7676,6926.0625 -32.6367,32.6367 -32.6368,32.6367 v 28.8828 95.9551 28.8828 95.957 28.8828 l 1.7012,2.1621 1.7012,2.1622 h 33.5918 c 32.4975,0 33.6444,-0.052 35.2324,-1.6407 v 0 c 1.6246,-1.6248 1.6406,-2.7353 1.6406,-108.9472 v -28.8828 -78.4239 l 13.7383,-13.7558 13.7402,-13.7578 h 27.9238 27.9239 l 13.3281,13.3476 13.3281,13.3457 v 77.0703 28.8828 c 0,75.2406 0.2618,106.705 0.9063,108.5528 0.4987,1.4309 1.5826,2.9644 2.4082,3.4062 0.9074,0.4857 14.4733,0.8028 34.2949,0.8028 31.0649,0 32.897,-0.086 34.7324,-1.5684 l 1.9375,-1.5684 0.2344,-122.9824 c 0.046,-23.6059 0.05,-44.6543 0.037,-63.707 0.033,-50.9096 -0.085,-89.7361 -0.3008,-91.0293 -0.4221,-2.4302 -5.2625,-7.6543 -31.4238,-33.9141 -17.0089,-17.0729 -31.9236,-31.5693 -33.1426,-32.2148 -1.866,-0.988 -12.1761,-1.1738 -65.2383,-1.1738 z"
             style="fill:#4ce6f6;fill-opacity:1;stroke:none;stroke-width:12.39307117;stroke-linecap:round;stroke-linejoin:round;stroke-miterlimit:4;stroke-dasharray:none;stroke-opacity:1;paint-order:fill markers stroke"
             inkscape:connector-curvature="0" />
          <path
             id="path3924"
             d="m 802.59798,1939.9008 c 0.42986,-0.4299 0.43431,-0.7238 0.43431,-28.8257 v -28.3913 l 3.63507,-3.6398 3.63502,-3.6398 h 7.38835 7.38828 l 3.52642,3.5313 3.52637,3.5312 v 28.0332 c 0,19.9074 0.0695,28.2327 0.24002,28.7216 0.13195,0.3786 0.41872,0.7841 0.63716,0.901 0.24009,0.1285 3.82942,0.2126 9.07387,0.2126 8.21925,0 8.70364,-0.023 9.18926,-0.4152 l 0.51269,-0.4151 0.0622,-32.5389 c 0.0345,-17.8964 0,-32.881 -0.0698,-33.299 -0.11168,-0.643 -1.39248,-2.0253 -8.31433,-8.9731 -4.50027,-4.5172 -8.44624,-8.3528 -8.76877,-8.5236 -0.4937,-0.2614 -3.22185,-0.3105 -17.26122,-0.3105 h -16.67481 l -8.63511,8.6352 -8.63518,8.6352 v 33.0303 33.0303 l 0.4501,0.5722 0.45011,0.5722 h 8.88775 c 8.59831,0 8.90198,-0.014 9.32215,-0.4344 z"
             style="fill:none;fill-opacity:1;stroke:#ffffff;stroke-width:3.57359576;stroke-linecap:round;stroke-linejoin:round;stroke-miterlimit:4;stroke-dasharray:none;stroke-opacity:1;paint-order:stroke fill markers"
             inkscape:connector-curvature="0" />
        </g>
        <g
           id="g3934"
           transform="matrix(0.91756324,0,0,0.91756324,75.382786,159.9565)">
          <path
             id="path3928"
             transform="matrix(0.26458333,0,0,0.26458333,-725.03259,23.63471)"
             d="m 5429.4355,6926.0625 -32.6367,32.6367 -32.6367,32.6367 v 28.8868 65.8886 28.8867 65.8887 28.8867 l 32.2266,32.2266 32.2265,32.2266 h 95.1485 95.1484 l 15.9102,-15.8028 c 8.7507,-8.6899 16.4376,-16.7967 17.08,-18.0156 0.9513,-1.8047 1.168,-8.024 1.168,-33.4863 0,-5.6662 -0.016,-10.1438 -0.045,-14.1407 0.03,-4.0452 0.045,-8.7727 0.045,-14.7421 0,-32.843 -0.2306,-35.0826 -3.7305,-36.4258 -0.7302,-0.2797 -9.1256,-0.5098 -18.6543,-0.5098 h -17.3242 l -15.2617,15.1856 -15.2598,15.1836 h -59.0586 -59.0585 l -13.3457,-13.3282 -13.3477,-13.3281 v -29.8027 -28.8828 -29.8028 l 13.7383,-13.7558 13.7402,-13.7578 h 27.9238 27.9239 l 13.3281,13.3476 7.0059,7.0156 h -22.4043 c -27.3575,0 -28.8026,0.079 -30.3223,1.5957 -0.8776,0.8776 -1.8204,2.818 -2.0938,4.3106 -0.2732,1.4921 -0.3858,16.5026 -0.25,33.3574 l 0.024,2.8789 c -0.086,6.2505 -0.1077,15.5597 -0.024,26.0039 l 0.2461,30.6446 2.3262,2 2.3242,2 48.3731,-0.2247 48.375,-0.2226 16.8086,-16.8653 16.8086,-16.8671 v -28.8848 -19.9238 -28.8848 -19.9238 -28.8848 l -32.6485,-32.6113 -32.6504,-32.6133 h -63.5722 z"
             style="fill:#000000;fill-opacity:1;stroke:#0f0f0f;stroke-width:40.51950836;stroke-linecap:round;stroke-linejoin:round;stroke-miterlimit:4;stroke-dasharray:none;stroke-opacity:1;paint-order:fill markers stroke"
             inkscape:connector-curvature="0" />
          <path
             id="path3930"
             transform="matrix(0.26458333,0,0,0.26458333,-725.03259,23.63471)"
             d="m 5429.4355,6926.0625 -32.6367,32.6367 -32.6367,32.6367 v 28.8868 65.8886 28.8867 65.8887 28.8867 l 32.2266,32.2266 32.2265,32.2266 h 95.1485 95.1484 l 15.9102,-15.8028 c 8.7507,-8.6899 16.4376,-16.7967 17.08,-18.0156 0.9513,-1.8047 1.168,-8.024 1.168,-33.4863 0,-5.6662 -0.016,-10.1438 -0.045,-14.1407 0.03,-4.0452 0.045,-8.7727 0.045,-14.7421 0,-32.843 -0.2306,-35.0826 -3.7305,-36.4258 -0.7302,-0.2797 -9.1256,-0.5098 -18.6543,-0.5098 h -17.3242 l -15.2617,15.1856 -15.2598,15.1836 h -59.0586 -59.0585 l -13.3457,-13.3282 -13.3477,-13.3281 v -29.8027 -28.8828 -29.8028 l 13.7383,-13.7558 13.7402,-13.7578 h 27.9238 27.9239 l 13.3281,13.3476 7.0059,7.0156 h -22.4043 c -27.3575,0 -28.8026,0.079 -30.3223,1.5957 -0.8776,0.8776 -1.8204,2.818 -2.0938,4.3106 -0.2732,1.4921 -0.3858,16.5026 -0.25,33.3574 l 0.024,2.8789 c -0.086,6.2505 -0.1077,15.5597 -0.024,26.0039 l 0.2461,30.6446 2.3262,2 2.3242,2 48.3731,-0.2247 48.375,-0.2226 16.8086,-16.8653 16.8086,-16.8671 v -28.8848 -19.9238 -28.8848 -19.9238 -28.8848 l -32.6485,-32.6113 -32.6504,-32.6133 h -63.5722 z"
             style="fill:#4ce6f6;fill-opacity:1;stroke:none;stroke-width:12.39307117;stroke-linecap:round;stroke-linejoin:round;stroke-miterlimit:4;stroke-dasharray:none;stroke-opacity:1;paint-order:fill markers stroke"
             inkscape:connector-curvature="0" />
          <path
             id="path3932"
             d="m 765.84759,1936.1548 c 2.3153,-2.2992 4.34877,-4.4442 4.51874,-4.7667 0.25169,-0.4775 0.30913,-2.1232 0.30913,-8.8601 0,-8.6897 -0.061,-9.2819 -0.98701,-9.6373 -0.1932,-0.074 -2.41428,-0.135 -4.9354,-0.135 h -4.58387 l -4.03777,4.0175 -4.03773,4.0175 h -15.62586 -15.62589 l -3.53122,-3.5264 -3.53128,-3.5264 v -15.5271 -15.5271 l 3.63506,-3.6397 3.63502,-3.6398 h 7.38835 7.38828 l 3.52637,3.5312 3.52642,3.5313 v 2.9835 2.9836 h -7.60065 c -7.23832,0 -7.62072,0.021 -8.02282,0.4222 -0.23219,0.2322 -0.48137,0.7453 -0.5537,1.1401 -0.0723,0.3948 -0.10225,4.3666 -0.0663,8.8261 l 0.0652,8.1082 0.61514,0.529 0.61513,0.5289 12.79891,-0.059 12.79892,-0.059 4.4474,-4.4625 4.44738,-4.4624 v -12.914 -12.914 l -8.63845,-8.6285 -8.63845,-8.6285 h -16.82058 -16.82057 l -8.63511,8.6352 -8.63518,8.6351 v 25.076 25.0758 l 8.52665,8.5266 8.5266,8.5266 h 25.17481 25.17486 z"
             style="fill:none;fill-opacity:1;stroke:#ffffff;stroke-width:3.57359576;stroke-linecap:round;stroke-linejoin:round;stroke-miterlimit:4;stroke-dasharray:none;stroke-opacity:1;paint-order:stroke fill markers"
             inkscape:connector-curvature="0" />
        </g>
        <g
           id="g3942">
          <path
             inkscape:connector-curvature="0"
             id="path3936"
             transform="matrix(0.26458333,0,0,0.26458333,-725.03259,23.63471)"
             d="m 7024.25,6957.2515 -15.9102,15.7988 c -8.7507,8.6899 -16.4352,16.7968 -17.0781,18.0157 -0.9865,1.872 -1.3972,50.6324 -1.2734,93.7285 -0.1252,43.1798 0.2882,92.187 1.2734,94.0527 0.6467,1.2193 22.1681,23.1769 47.8262,48.7949 l 46.6504,46.5782 h 59.6933 59.6934 v 12.7636 28.8828 12.7618 l -13.7383,13.7558 -13.7383,13.7578 h -43.0898 -43.0898 l -13.3477,-13.3281 -13.3457,-13.3281 v -13.5528 c 0,-14.4173 -0.7611,-19.1803 -3.2598,-20.5175 -1.6909,-0.9049 -65.3868,-1.2075 -67.6953,-0.3223 -3.4942,1.341 -3.7305,3.6148 -3.7305,35.9199 0,4.9523 0.022,9.4029 0.061,13.3379 -0.042,4.2568 -0.061,9.1775 -0.061,15.5449 0,19.6007 0.3143,31.6041 0.8672,33.0762 0.9135,2.4329 57.1453,59.4559 62.6778,63.5586 l 3.2168,2.3848 78.6621,-0.2149 78.6621,-0.2148 32.4121,-32.4414 v 0 l 32.4122,-32.4414 v -28.8828 -157.8126 -28.8828 -157.8125 -28.8808 l -17.0235,-17.0391 -17.0234,-17.0371 h -33.4531 c -32.3592,0 -33.5083,0.052 -35.0958,1.6406 -1.5428,1.5425 -1.6425,2.7356 -1.6425,19.8145 v 18.1738 l 0.053,0.055 c -0.042,2.6206 -0.053,6.0138 -0.053,10.6543 v 18.1738 l 15.1855,15.3184 15.1836,15.3183 v 43.0938 28.8828 43.0938 h -41.6504 -41.6484 l -28.5254,-28.5176 -28.5254,-28.5176 v -15.0039 -28.8828 -15.0059 l 15.1836,-15.2597 15.1836,-15.2618 v -17.2812 c 0,-5.2909 -0.018,-8.8707 -0.088,-11.5137 l 0.088,-0.088 v -17.2812 c 0,-16.2403 -0.1021,-17.4111 -1.7012,-19.4434 l -1.7012,-2.1621 H 7058 Z"
             style="fill:#000000;fill-opacity:1;stroke:#0f0f0f;stroke-width:37.17921448;stroke-linecap:round;stroke-linejoin:round;stroke-miterlimit:4;stroke-dasharray:none;stroke-opacity:1;paint-order:fill markers stroke" />
          <path
             inkscape:connector-curvature="0"
             id="path3938"
             transform="matrix(0.26458333,0,0,0.26458333,-725.03259,23.63471)"
             d="m 7024.25,6957.2515 -15.9102,15.7988 c -8.7507,8.6899 -16.4352,16.7968 -17.0781,18.0157 -0.9865,1.872 -1.3972,50.6324 -1.2734,93.7285 -0.1252,43.1798 0.2882,92.187 1.2734,94.0527 0.6467,1.2193 22.1681,23.1769 47.8262,48.7949 l 46.6504,46.5782 h 59.6933 59.6934 v 12.7636 28.8828 12.7618 l -13.7383,13.7558 -13.7383,13.7578 h -43.0898 -43.0898 l -13.3477,-13.3281 -13.3457,-13.3281 v -13.5528 c 0,-14.4173 -0.7611,-19.1803 -3.2598,-20.5175 -1.6909,-0.9049 -65.3868,-1.2075 -67.6953,-0.3223 -3.4942,1.341 -3.7305,3.6148 -3.7305,35.9199 0,4.9523 0.022,9.4029 0.061,13.3379 -0.042,4.2568 -0.061,9.1775 -0.061,15.5449 0,19.6007 0.3143,31.6041 0.8672,33.0762 0.9135,2.4329 57.1453,59.4559 62.6778,63.5586 l 3.2168,2.3848 78.6621,-0.2149 78.6621,-0.2148 32.4121,-32.4414 v 0 l 32.4122,-32.4414 v -28.8828 -157.8126 -28.8828 -157.8125 -28.8808 l -17.0235,-17.0391 -17.0234,-17.0371 h -33.4531 c -32.3592,0 -33.5083,0.052 -35.0958,1.6406 -1.5428,1.5425 -1.6425,2.7356 -1.6425,19.8145 v 18.1738 l 0.053,0.055 c -0.042,2.6206 -0.053,6.0138 -0.053,10.6543 v 18.1738 l 15.1855,15.3184 15.1836,15.3183 v 43.0938 28.8828 43.0938 h -41.6504 -41.6484 l -28.5254,-28.5176 -28.5254,-28.5176 v -15.0039 -28.8828 -15.0059 l 15.1836,-15.2597 15.1836,-15.2618 v -17.2812 c 0,-5.2909 -0.018,-8.8707 -0.088,-11.5137 l 0.088,-0.088 v -17.2812 c 0,-16.2403 -0.1021,-17.4111 -1.7012,-19.4434 l -1.7012,-2.1621 H 7058 Z"
             style="fill:#4ce6f6;fill-opacity:1;stroke:none;stroke-width:12.39307117;stroke-linecap:round;stroke-linejoin:round;stroke-miterlimit:4;stroke-dasharray:none;stroke-opacity:1;paint-order:fill markers stroke" />
          <path
             inkscape:connector-curvature="0"
             id="path3940"
             d="m 1192.2944,1980.5041 8.5754,-8.5835 v -49.3964 -49.3964 l -4.5041,-4.5079 -4.5041,-4.508 h -8.8512 c -8.5617,0 -8.8655,0.014 -9.2856,0.4343 -0.4082,0.4082 -0.4343,0.7239 -0.4343,5.2426 v 4.8083 l 4.0175,4.053 4.0174,4.0531 v 19.0437 19.0438 h -11.0197 -11.0197 l -7.5475,-7.5451 -7.5475,-7.5452 v -11.612 -11.6119 l 4.0175,-4.0378 4.0175,-4.0377 v -4.5724 c 0,-4.2969 -0.027,-4.6068 -0.4501,-5.1445 l -0.4501,-0.5722 h -8.9294 -8.9294 l -4.2097,4.1803 c -2.3153,2.2992 -4.3487,4.4443 -4.5188,4.7668 -0.4641,0.8806 -0.4623,41.1666 0,42.042 0.1711,0.3226 5.8654,6.1322 12.6541,12.9103 l 12.343,12.3238 h 15.7939 15.794 v 11.0186 11.0186 l -3.635,3.6397 -3.635,3.6398 h -11.401 -11.4008 l -3.5313,-3.5264 -3.5313,-3.5264 v -3.5856 c 0,-3.8146 -0.2015,-5.0752 -0.8626,-5.4289 -0.4474,-0.2395 -17.2999,-0.3193 -17.9107,-0.085 -0.9245,0.3547 -0.987,0.9563 -0.987,9.5037 0,5.186 0.083,8.3621 0.2293,8.7516 0.2416,0.6437 15.1195,15.7307 16.5832,16.8162 l 0.8514,0.6314 20.8127,-0.057 20.8127,-0.057 8.5755,-8.5835 z"
             style="fill:none;fill-opacity:1;stroke:#ffffff;stroke-width:3.27900004;stroke-linecap:round;stroke-linejoin:round;stroke-miterlimit:4;stroke-dasharray:none;stroke-opacity:1;paint-order:stroke fill markers" />
        </g>
        <g
           id="g3950">
          <path
             inkscape:connector-curvature="0"
             id="path3944"
             transform="matrix(0.26458333,0,0,0.26458333,-725.03259,23.63471)"
             d="m 6891.4941,6957.2265 c -26.44,-0.046 -23.6953,0.532 -23.6953,12.6856 v 9.0664 l -10.8867,-10.8633 -10.8848,-10.8633 h -64.0234 -64.0215 l -32.6113,32.6484 -32.6113,32.6485 v 28.8828 49.8633 28.8828 49.8633 28.8828 l 32.6113,32.6484 32.6113,32.6485 h 64.1778 64.1796 l 1.7012,-2.1622 c 1.6558,-2.1048 1.7012,-3.0275 1.7012,-34.5351 v -28.8828 -3.4883 -28.8828 l -2.3984,-2.4004 -2.4004,-2.3984 h -45.8301 -45.8301 l -13.3281,-13.3477 -13.3281,-13.3457 v -14.6172 -28.8828 -14.6191 l 13.3476,-13.3282 13.3457,-13.3281 h 29.3379 29.3379 l 27.9023,13.9551 27.9004,13.957 v 105.916 28.8828 105.9161 l -13.7383,13.7558 -13.7382,13.7578 h -43.0918 -43.0899 l -13.7558,-13.7383 -13.7578,-13.7402 v -15.1387 c 0,-14.4151 -0.086,-15.2328 -1.7832,-17.041 l -1.7852,-1.8984 h -33.1348 -33.1347 l -2.0157,2.0137 -2.0136,2.0136 v 28.8828 4.1661 28.8828 4.164 28.8829 l 30.9824,31.0976 c 17.0411,17.1027 32.093,31.7971 33.4473,32.6543 2.3803,1.5061 5.0791,1.5499 81.0585,1.3477 l 78.5977,-0.211 32.4102,-32.4394 32.4121,-32.4414 v -28.8828 -172.6876 -28.8828 -172.6875 -28.8828 l -1.7012,-2.1621 -1.7012,-2.1621 h -33.5605 c -5.0615,0 -9.4338,-0.019 -13.211,-0.025 z"
             style="fill:#000000;fill-opacity:1;stroke:#0f0f0f;stroke-width:37.17921448;stroke-linecap:round;stroke-linejoin:round;stroke-miterlimit:4;stroke-dasharray:none;stroke-opacity:1;paint-order:fill markers stroke" />
          <path
             inkscape:connector-curvature="0"
             id="path3946"
             d="m 6891.4941,6957.2265 c -26.44,-0.046 -23.6953,0.532 -23.6953,12.6856 v 9.0664 l -10.8867,-10.8633 -10.8848,-10.8633 h -64.0234 -64.0215 l -32.6113,32.6484 -32.6113,32.6485 v 28.8828 49.8633 28.8828 49.8633 28.8828 l 32.6113,32.6484 32.6113,32.6485 h 64.1778 64.1796 l 1.7012,-2.1622 c 1.6558,-2.1048 1.7012,-3.0275 1.7012,-34.5351 v -28.8828 -3.4883 -28.8828 l -2.3984,-2.4004 -2.4004,-2.3984 h -45.8301 -45.8301 l -13.3281,-13.3477 -13.3281,-13.3457 v -14.6172 -28.8828 -14.6191 l 13.3476,-13.3282 13.3457,-13.3281 h 29.3379 29.3379 l 27.9023,13.9551 27.9004,13.957 v 105.916 28.8828 105.9161 l -13.7383,13.7558 -13.7382,13.7578 h -43.0918 -43.0899 l -13.7558,-13.7383 -13.7578,-13.7402 v -15.1387 c 0,-14.4151 -0.086,-15.2328 -1.7832,-17.041 l -1.7852,-1.8984 h -33.1348 -33.1347 l -2.0157,2.0137 -2.0136,2.0136 v 28.8828 4.1661 28.8828 4.164 28.8829 l 30.9824,31.0976 c 17.0411,17.1027 32.093,31.7971 33.4473,32.6543 2.3803,1.5061 5.0791,1.5499 81.0585,1.3477 l 78.5977,-0.211 32.4102,-32.4394 32.4121,-32.4414 v -28.8828 -172.6876 -28.8828 -172.6875 -28.8828 l -1.7012,-2.1621 -1.7012,-2.1621 h -33.5605 c -5.0615,0 -9.4338,-0.019 -13.211,-0.025 z"
             style="fill:#4ce6f6;fill-opacity:1;stroke:none;stroke-width:12.39307117;stroke-linecap:round;stroke-linejoin:round;stroke-miterlimit:4;stroke-dasharray:none;stroke-opacity:1;paint-order:fill markers stroke"
             transform="matrix(0.26458333,0,0,0.26458333,-725.03259,23.63471)" />
          <path
             inkscape:connector-curvature="0"
             id="path3948"
             d="m 1103.0415,1980.5041 8.5755,-8.5835 v -53.3322 -53.3321 l -0.4501,-0.5722 -0.4501,-0.5722 h -8.8793 c -10.7134,0 -9.7649,-0.3254 -9.7649,3.3496 v 2.3991 l -2.8803,-2.8743 -2.8803,-2.8744 h -16.9392 -16.9393 l -8.6285,8.6384 -8.6284,8.6385 v 20.8347 20.8348 l 8.6284,8.6384 8.6285,8.6384 h 16.9807 16.9807 l 0.45,-0.5722 c 0.4381,-0.5569 0.4502,-0.801 0.4502,-9.1374 v -8.5652 l -0.6348,-0.6348 -0.6348,-0.6348 h -12.1259 -12.1258 l -3.5264,-3.5312 -3.5264,-3.5313 v -11.5095 -11.5096 l 3.5313,-3.5264 3.5312,-3.5264 h 7.7623 7.7623 l 7.3823,3.6924 7.3822,3.6923 v 35.6656 35.6657 l -3.635,3.6397 -3.6351,3.6398 h -11.401 -11.401 l -3.6398,-3.6351 -3.6397,-3.635 v -4.0059 c 0,-3.814 -0.023,-4.0299 -0.4722,-4.5084 l -0.4721,-0.5026 h -8.767 -8.7671 l -0.533,0.5329 -0.533,0.5331 v 8.7439 8.744 l 8.1978,8.2275 c 4.5088,4.5251 8.491,8.413 8.8493,8.6398 0.6298,0.3985 1.344,0.4104 21.4469,0.3569 l 20.7955,-0.056 z"
             style="fill:none;fill-opacity:1;stroke:#ffffff;stroke-width:3.27900004;stroke-linecap:round;stroke-linejoin:round;stroke-miterlimit:4;stroke-dasharray:none;stroke-opacity:1;paint-order:stroke fill markers" />
        </g>
      </g>
    </g>
  </g>
</svg>
