<?xml version="1.0" encoding="UTF-8" standalone="no"?>
<!-- Created with Inkscape (http://www.inkscape.org/) -->

<svg
   width="90.871635mm"
   height="31.404171mm"
   viewBox="0 0 90.871636 31.404171"
   version="1.1"
   id="svg2872"
   inkscape:version="1.1 (c68e22c387, 2021-05-23)"
   sodipodi:docname="games-logo.svg"
   xmlns:inkscape="http://www.inkscape.org/namespaces/inkscape"
   xmlns:sodipodi="http://sodipodi.sourceforge.net/DTD/sodipodi-0.dtd"
   xmlns="http://www.w3.org/2000/svg"
   xmlns:svg="http://www.w3.org/2000/svg"
   xmlns:rdf="http://www.w3.org/1999/02/22-rdf-syntax-ns#"
   xmlns:cc="http://creativecommons.org/ns#"
   xmlns:dc="http://purl.org/dc/elements/1.1/">
  <defs
     id="defs2866" />
  <sodipodi:namedview
     id="base"
     pagecolor="#ffffff"
     bordercolor="#666666"
     borderopacity="1.0"
     inkscape:pageopacity="0.0"
     inkscape:pageshadow="2"
     inkscape:zoom="1.4"
     inkscape:cx="77.142857"
     inkscape:cy="-21.785714"
     inkscape:document-units="mm"
     inkscape:current-layer="layer1"
     showgrid="false"
     inkscape:window-width="1920"
     inkscape:window-height="1017"
     inkscape:window-x="-8"
     inkscape:window-y="-8"
     inkscape:window-maximized="1"
     inkscape:pagecheckerboard="0">
    <sodipodi:guide
       position="0,31.404171"
       orientation="0,343.45185"
       id="guide848" />
    <sodipodi:guide
       position="90.871636,31.404171"
       orientation="118.69293,0"
       id="guide850" />
    <sodipodi:guide
       position="90.871636,0"
       orientation="0,-343.45185"
       id="guide852" />
    <sodipodi:guide
       position="0,0"
       orientation="-118.69293,0"
       id="guide854" />
  </sodipodi:namedview>
  <metadata
     id="metadata2869">
    <rdf:RDF>
      <cc:Work
         rdf:about="">
        <dc:format>image/svg+xml</dc:format>
        <dc:type
           rdf:resource="http://purl.org/dc/dcmitype/StillImage" />
        <dc:title />
      </cc:Work>
    </rdf:RDF>
  </metadata>
  <g
     inkscape:label="Layer 1"
     inkscape:groupmode="layer"
     id="layer1"
     transform="translate(-95.768463,-118.42957)">
    <g
       transform="translate(-2719.9897,-2450.2758)"
       style="enable-background:new"
       id="g2852">
      <path
         id="path2841"
         transform="matrix(0.26458333,0,0,0.26458333,1978.6783,2579.2332)"
         d="m 3319.5605,-11.458984 a 3.7799055,3.7799055 0 0 0 -0.9238,0.117187 h -0.1699 c -0.6115,7.56e-4 -1.0302,0.05532 -1.2539,0.07422 a 3.7799055,3.7799055 0 0 0 -0.096,0 c -14.6366,1.245354 -26.1598,13.5638735 -26.1602,28.49414 v 24.826172 a 3.7799055,3.7799055 0 0 0 3.7793,3.779297 h 16.5567 a 3.7799055,3.7799055 0 0 0 3.7793,-3.779297 V 17.226562 c 0,-2.527747 1.9683,-4.49414 4.4961,-4.49414 2.5281,0 4.4961,1.967527 4.4961,4.49414 v 6.429688 a 3.7799055,3.7799055 0 0 0 3.7793,3.779297 h 16.5507 a 3.7799055,3.7799055 0 0 0 3.7793,-3.779297 v -6.429688 c 0,-2.527747 1.9664,-4.49414 4.4942,-4.49414 2.5281,0 4.4961,1.966393 4.4961,4.49414 v 24.826172 a 3.7799055,3.7799055 0 0 0 3.7793,3.779297 h 16.5586 a 3.7799055,3.7799055 0 0 0 3.7792,-3.779297 V 17.226562 c 0,-14.5247232 -10.8961,-26.5861486 -24.9726,-28.375 -0.3477,-0.04535 -0.7251,-0.08317 -1.1367,-0.117187 a 3.7799055,3.7799055 0 0 0 -0.039,0 3.7799055,3.7799055 0 0 0 -0.6035,-0.05273 c 0.1398,0 -0.043,-0.03736 -0.5625,-0.04492 a 3.7799055,3.7799055 0 0 0 -0.1699,0 c -0.121,0 -0.5071,-0.03906 -1.1367,-0.03906 h -0.42 c -0.2154,0 -0.4385,-3.78e-4 -0.666,0 -0.5008,3.78e-4 -0.7913,0.0419 -1.0332,0.06836 a 3.7799055,3.7799055 0 0 0 -0.3242,0 c -5.291,0.450141 -9.9907,2.6059609 -14.0703,5.5449215 -3.7769,-2.7325984 -8.0881,-4.8012135 -12.9414,-5.4199215 -0.3477,-0.04536 -0.7286,-0.08903 -1.1367,-0.123047 a 3.7799055,3.7799055 0 0 0 -0.3086,0 c 0.794,0 0.6873,-0.03906 -0.3184,-0.03906 0.1436,0 -0.041,-0.03736 -0.5605,-0.04492 a 3.7799055,3.7799055 0 0 0 -0.17,0 c -0.1209,0 -0.4992,-0.03711 -1.1289,-0.03711 z m -121.373,0.109375 a 3.7799055,3.7799055 0 0 0 -1.4629,0.294921 c -11.7634,0.632664 -21.7257,8.2790497 -25.5078,18.8710942 h -1.6191 v 9.1289058 c 0,0.105797 -0.01,0.210321 -0.01,0.316407 0,0.07302 0.01,0.143938 0.01,0.216797 v 0.02539 c 0.064,7.246843 2.9693,13.688395 7.5742,18.597656 h -7.6192 v 9.6875 h 0.031 c 0.1935,15.591087 12.968,28.247595 28.6035,28.246094 15.7546,-0.0015 28.6028,-12.848556 28.6035,-28.603515 V 20.605469 16.560547 a 3.7799055,3.7799055 0 0 0 0,-0.101563 c -0.4256,-15.3940148 -13.1025,-27.807082 -28.5898,-27.808593 z m 60.6855,0 c -0.4811,0 -0.8819,0.248807 -1.3574,0.271484 h -0.039 a 3.7799055,3.7799055 0 0 0 -0.064,0.03906 c -11.744,0.622003 -21.7004,8.2341521 -25.5078,18.7910151 h -1.6426 v 8.9726559 c 0,0.184527 -0.014,0.367315 -0.014,0.552735 4e-4,14.501291 10.8627,26.541485 24.9063,28.361328 0.8829,0.113386 1.7817,0.184607 2.6934,0.214844 a 3.7799055,3.7799055 0 0 0 0.125,0 c -0.053,0 0.6054,0.03711 0.6054,0.03711 a 3.7799055,3.7799055 0 0 0 0.25,0 h 24.8321 a 3.7799055,3.7799055 0 0 0 3.7793,-3.779297 V 17.279297 c -4e-4,-15.2133544 -12.0748,-27.451709 -27.084,-28.294922 a 3.7799055,3.7799055 0 0 0 -1.5059,-0.324219 z m 129.6485,0 a 3.7799055,3.7799055 0 0 0 -3.7793,3.7792965 v 16.5566406 4.1347659 8.27539 20.691407 a 3.7799055,3.7799055 0 0 0 3.7793,3.779297 h 49.6504 a 3.7799055,3.7799055 0 0 0 3.7793,-3.779297 V 29.25 a 3.7799055,3.7799055 0 0 0 -3.7793,-3.779297 h -29.3203 v -2.148437 h 29.3203 a 3.7799055,3.7799055 0 0 0 3.7793,-3.779297 v -4.5625 a 3.7799055,3.7799055 0 0 0 -3.7793,-3.779297 h -29.3203 V 9.046875 h 29.3203 a 3.7799055,3.7799055 0 0 0 3.7793,-3.7792969 V -7.5703125 a 3.7799055,3.7799055 0 0 0 -3.7793,-3.7792965 h -33.0996 z m 85.5039,0 c -0.1324,-0.0021 -5.3011,-0.07537 -11.0781,1.490234 -2.8577,0.7751811 -6.3585,2.0175172 -9.6407,4.6953125 -1.2802,1.0447318 -2.4697,2.3392217 -3.4804,3.8222656 h -3.0332 v 9.4746094 c -7e-4,0.063546 -0.01,0.1256729 -0.01,0.1894531 0,5.7607564 2.943,10.5622954 6.5332,13.4804684 1.9279,1.566615 3.7588,1.969779 5.6621,2.746094 h -9.7656 a 3.7799055,3.7799055 0 0 0 -3.7793,3.779297 V 42.125 a 3.7799055,3.7799055 0 0 0 3.7715,3.779297 l 24.7969,0.03711 c 0,0 5.2656,0.09528 11.1152,-1.490234 2.8592,-0.775559 6.3585,-2.024952 9.6406,-4.703125 3.5816,-2.921503 6.5071,-7.718905 6.5117,-13.464844 h 0.02 v -9.6875 h -3.0625 c -1.0104,-1.479468 -2.2008,-2.770827 -3.4825,-3.8125 -1.9237,-1.563968 -3.7465,-1.963478 -5.6464,-2.738281 h 9.75 a 3.7799055,3.7799055 0 0 0 3.7793,-3.7812501 V -7.53125 a 3.7799055,3.7799055 0 0 0 -3.7715,-3.78125 z m -275.8457,24.09375 c 2.4918,0 4.432,1.921776 4.4883,4.40039 v 0.207031 c -0.057,2.478993 -1.9968,4.392579 -4.4883,4.392579 -2.5293,3.78e-4 -4.4961,-1.962677 -4.4961,-4.496094 0,-2.533039 1.9668,-4.501953 4.4961,-4.501953 z m 60.6933,0 c 2.5282,0 4.4965,1.97578 4.4961,4.503906 v 4.494141 h -4.5039 c -2.5277,0 -4.4945,-1.965259 -4.4941,-4.494141 -4e-4,-2.527748 1.9734,-4.503906 4.5019,-4.503906 z m -79.8828,25.126953 c 1.5858,1.427298 3.3173,2.702302 5.1778,3.78125 h -5.1778 z m 14.6563,7.058594 c 1.5375,0.257006 2.9324,0.921874 4.541,0.921874 1.5719,0 2.9833,-0.52153 4.4883,-0.767578 v 0.333985 c 4e-4,2.528126 -1.9669,4.49414 -4.4961,4.49414 -2.5293,0 -4.4961,-1.966014 -4.4961,-4.49414 a 3.7799055,3.7799055 0 0 0 -0.037,-0.488281 z"
         style="color:#000000;font-style:normal;font-variant:normal;font-weight:normal;font-stretch:normal;font-size:medium;line-height:normal;font-family:sans-serif;font-variant-ligatures:normal;font-variant-position:normal;font-variant-caps:normal;font-variant-numeric:normal;font-variant-alternates:normal;font-feature-settings:normal;text-indent:0;text-align:start;text-decoration:none;text-decoration-line:none;text-decoration-style:solid;text-decoration-color:#000000;letter-spacing:normal;word-spacing:normal;text-transform:none;writing-mode:lr-tb;direction:ltr;text-orientation:mixed;dominant-baseline:auto;baseline-shift:baseline;text-anchor:start;white-space:normal;shape-padding:0;clip-rule:nonzero;display:inline;overflow:visible;visibility:visible;opacity:1;isolation:auto;mix-blend-mode:normal;color-interpolation:sRGB;color-interpolation-filters:linearRGB;solid-color:#000000;solid-opacity:1;vector-effect:none;fill:#2096dd;fill-opacity:1;fill-rule:nonzero;stroke:none;stroke-width:7.55906;stroke-linecap:round;stroke-linejoin:round;stroke-miterlimit:4;stroke-dasharray:none;stroke-dashoffset:0;stroke-opacity:1;color-rendering:auto;image-rendering:auto;shape-rendering:auto;text-rendering:auto;enable-background:accumulate"
         inkscape:connector-curvature="0" />
      <path
         sodipodi:nodetypes="ccccsccccsccccsssccccsssccccscsccccccssccccccccccccscccccccccccccccscccscccccccccsccccsccccccccccccccccccccccccccccccccccscccscccccccccccccscccccccc"
         inkscape:connector-curvature="0"
         id="path2843"
         d="m 2856.9895,2573.5464 v 0 h -0.011 c -0.081,0 -0.1607,0.01 -0.2388,0.029 h -0.049 c -0.1338,0 -0.2093,0.011 -0.2734,0.018 h -0.086 c -3.8726,0.3295 -6.9199,3.5888 -6.92,7.5391 v 2.6081 c -1e-4,0.015 0,0.029 0,0.043 v 6.5686 c 10e-5,0.5522 0.4477,0.9998 0.9999,0.9999 h 4.3806 c 0.5522,-1e-4 0.9999,-0.4477 1,-0.9999 v -6.5686 c 0,-0.6688 0.5207,-1.1891 1.1896,-1.1891 0.6689,0 1.1896,0.5206 1.1896,1.1891 v 1.7012 c 1e-4,0.5522 0.4477,0.9998 0.9999,0.9999 h 4.379 c 0.5522,-1e-4 0.9999,-0.4477 1,-0.9999 v -1.7012 c 0,-0.6688 0.5202,-1.1891 1.1891,-1.1891 0.6689,0 1.1896,0.5203 1.1896,1.1891 v 6.5686 c 10e-5,0.5522 0.4477,0.9998 0.9999,0.9999 h 4.3811 c 0.5522,-1e-4 0.9998,-0.4477 0.9999,-0.9999 v -6.5686 c 0,-0.01 -4e-4,-0.015 -5e-4,-0.022 v -2.6293 c 0,-3.8423 -2.8824,-7.0317 -6.6058,-7.506 -0.092,-0.012 -0.1925,-0.024 -0.3007,-0.033 h -0.014 c -0.05,-0.01 -0.1,-0.013 -0.1503,-0.014 0.038,0 -0.011,-0.01 -0.1484,-0.012 -0.016,-4e-4 -0.031,-4e-4 -0.047,0 -0.032,0 -0.1321,-0.01 -0.2987,-0.01 h -0.1111 c -0.057,0 -0.1161,-10e-5 -0.1762,0 -0.1325,2e-4 -0.2094,0.011 -0.2734,0.018 h -0.084 c -1.4004,0.1191 -2.6452,0.6885 -3.7248,1.4666 -0.9997,-0.7232 -2.1389,-1.2701 -3.4236,-1.4335 -0.093,-0.012 -0.1921,-0.024 -0.3008,-0.033 h -0.082 c 0.2101,0 0.1822,-0.01 -0.084,-0.01 0.038,0 -0.011,-0.01 -0.1484,-0.012 -0.015,-3e-4 -0.03,-3e-4 -0.045,0 -0.032,0 -0.1342,-0.01 -0.3008,-0.01 z m -23.6306,7.597 v 0.1385 h -0.012 v 2.374 0.1462 c 1e-4,3.8368 2.8741,7.0225 6.5898,7.504 0.2336,0.03 0.4713,0.049 0.7126,0.057 0.011,2e-4 0.022,2e-4 0.033,0 -0.014,0 0.1602,0.01 0.1602,0.01 0.022,7e-4 0.044,7e-4 0.066,0 h 6.5702 c 0.5522,-10e-5 0.9998,-0.4477 0.9999,-0.9999 v -2.5446 c 0.01,-0.037 0.01,-0.074 0.01,-0.1116 v -6.5706 c -1e-4,-4.0252 -3.1927,-7.2633 -7.5597,-7.2722 -4.3669,-0.01 -7.57,3.237 -7.57,7.2692 z m -16.06,0.01 c 0,0.049 0,0.096 0.01,0.1447 v 0 2.4154 c -3e-4,0.028 0,0.056 0,0.084 v 0.057 0.01 c 0.012,1.3823 0.4166,2.6531 1.0971,3.7419 h -0.1034 c -0.5522,10e-5 -0.9998,0.4477 -0.9999,0.9999 v 0.1788 h -0.01 v 2.5631 h 0.01 c 0.051,4.1251 3.4311,7.4739 7.5681,7.4735 4.1683,-4e-4 7.5678,-3.3995 7.568,-7.568 v -6.5686 -1.0702 c 1e-4,-0.01 1e-4,-0.018 0,-0.027 -3e-4,-0.01 0,-0.02 0,-0.03 v -1.5198 -1.0702 c 1e-4,-0.01 1e-4,-0.018 0,-0.027 -0.1127,-4.073 -3.4667,-7.3573 -7.7044,-7.208 -4.2377,0.1493 -7.4349,3.3919 -7.4355,7.4205 z m 57.9278,-7.5704 c -0.5523,10e-5 -0.9999,0.4477 -1,1 v 2.5879 c -5e-4,0.019 -5e-4,0.037 0,0.056 v 4.3807 1.0939 2.1896 5.4746 c 10e-5,0.5522 0.4477,0.9998 0.9999,0.9999 h 13.1367 c 0.5522,-1e-4 0.9998,-0.4477 0.9999,-0.9999 v -2.5895 c 5e-4,-0.019 5e-4,-0.037 0,-0.056 v -3.3966 c 3e-4,-0.013 3e-4,-0.027 0,-0.04 v -1.0899 c -2e-4,-0.2711 -0.1104,-0.5305 -0.3054,-0.7188 0.1961,-0.1882 0.3071,-0.4481 0.3075,-0.7199 v -1.2071 c 3e-4,-0.013 3e-4,-0.027 0,-0.04 v -2.4722 c 5e-4,-0.019 5e-4,-0.037 0,-0.056 v -3.3967 c -10e-5,-0.5523 -0.4477,-0.9999 -1,-1 h -8.7576 z m 22.6327,0 c 0,0 -1.3931,-0.025 -2.9414,0.3948 -0.7561,0.2052 -1.6824,0.5337 -2.5508,1.2423 -0.948,0.7735 -1.7224,2.0457 -1.7224,3.5683 v 0.087 h -0.01 v 2.5068 c -10e-5,0.017 0,0.033 0,0.05 0,0.6122 0.1271,1.1825 0.339,1.697 -0.4135,0.1329 -0.6939,0.5176 -0.694,0.9519 v 2.5879 c -5e-4,0.019 -5e-4,0.037 0,0.056 v 3.6504 c 1e-4,0.5514 0.4464,0.9986 0.9978,0.9999 l 6.5609,0.01 c 0,0 1.3932,0.025 2.9409,-0.3943 0.7565,-0.2052 1.6823,-0.5358 2.5507,-1.2444 0.9477,-0.7729 1.7217,-2.0424 1.7229,-3.5626 h 0.01 v -2.5631 h -0.01 c 5e-4,-0.028 0,-0.056 0,-0.085 0,-0.6116 -0.1269,-1.1812 -0.3385,-1.6955 0.4156,-0.1317 0.6981,-0.5174 0.6981,-0.9534 v -3.6499 c 3e-4,-0.015 3e-4,-0.029 0,-0.044 v -2.6003 c -1e-4,-0.5516 -0.4468,-0.9991 -0.9984,-1 z"
         style="color:#000000;font-style:normal;font-variant:normal;font-weight:normal;font-stretch:normal;font-size:medium;line-height:normal;font-family:sans-serif;font-variant-ligatures:normal;font-variant-position:normal;font-variant-caps:normal;font-variant-numeric:normal;font-variant-alternates:normal;font-feature-settings:normal;text-indent:0;text-align:start;text-decoration:none;text-decoration-line:none;text-decoration-style:solid;text-decoration-color:#000000;letter-spacing:normal;word-spacing:normal;text-transform:none;writing-mode:lr-tb;direction:ltr;text-orientation:mixed;dominant-baseline:auto;baseline-shift:baseline;text-anchor:start;white-space:normal;shape-padding:0;clip-rule:nonzero;display:inline;overflow:visible;visibility:visible;opacity:1;isolation:auto;mix-blend-mode:normal;color-interpolation:sRGB;color-interpolation-filters:linearRGB;solid-color:#000000;solid-opacity:1;vector-effect:none;fill:#2096dd;fill-opacity:1;fill-rule:nonzero;stroke:#2096dd;stroke-width:2;stroke-linecap:round;stroke-linejoin:round;stroke-miterlimit:4;stroke-dasharray:none;stroke-dashoffset:0;stroke-opacity:1;color-rendering:auto;image-rendering:auto;shape-rendering:auto;text-rendering:auto;enable-background:accumulate" />
      <path
         sodipodi:nodetypes="cccscccccccsssccccsssccccsccccccsscccccccccccccccccccccccccsccccccccccccccccccccccccccccccccccscccccccccscccccccccccsccccccscccccssccscc"
         inkscape:connector-curvature="0"
         id="path2845"
         transform="matrix(0.26458333,0,0,0.26458333,1978.6783,2579.2332)"
         d="m 3319.6016,-21.464844 -0.041,0.0098 c -0.3041,3.3e-5 -0.607,0.03676 -0.9023,0.109375 h -0.1836 c -0.5053,0 -0.7909,0.0419 -1.0332,0.06836 -0.1087,-0.0047 -0.2175,-0.0047 -0.3262,0 -14.6366,1.245355 -26.1539,13.5638732 -26.1543,28.4941409 V 32.048828 c -7e-4,2.087873 1.6914,3.780916 3.7793,3.78125 h 16.5508 c 2.0879,-3.34e-4 3.78,-1.693377 3.7793,-3.78125 V 7.2167969 c 0,-2.5273701 1.9758,-4.4960938 4.5039,-4.4960938 2.5278,0 4.4942,1.9694796 4.4942,4.4960938 v 6.4296871 c 3e-4,2.087852 1.6933,3.780012 3.7812,3.779297 h 16.5488 c 2.0871,-3.34e-4 3.779,-1.692187 3.7793,-3.779297 V 7.2167969 c 0,-2.5277481 1.9684,-4.4960938 4.4961,-4.4960938 2.5278,0 4.4961,1.9683457 4.4961,4.4960938 V 32.042969 c 3e-4,2.08711 1.6922,3.778963 3.7793,3.779297 H 3377.5 c 2.0871,-3.34e-4 3.779,-1.692187 3.7793,-3.779297 V 7.2167969 c 0,-14.5220788 -10.8941,-26.5765109 -24.9668,-28.3691409 -0.3477,-0.04535 -0.7274,-0.09098 -1.1367,-0.125 -0.018,-1.23e-4 -0.035,-1.23e-4 -0.053,0 -0.1878,-0.03187 -0.3778,-0.0495 -0.5683,-0.05273 0.1436,0 -0.041,-0.03736 -0.5606,-0.04492 -0.059,-0.0014 -0.1185,-0.0014 -0.1777,0 -0.1209,0 -0.4992,-0.03711 -1.1289,-0.03711 h -0.4199 c -0.2155,0 -0.4389,-3.78e-4 -0.666,0 -0.5008,7.56e-4 -0.7914,0.0419 -1.0332,0.06836 -0.1054,-0.0044 -0.211,-0.0044 -0.3164,0 -5.2929,0.450142 -9.9978,2.602118 -14.0782,5.542969 -3.7787,-2.733355 -8.0839,-4.800394 -12.9394,-5.417969 -0.3515,-0.04535 -0.7263,-0.09098 -1.1367,-0.125 -0.1035,-0.0043 -0.2071,-0.0043 -0.3106,0 0.7941,0 0.6878,-0.03711 -0.3183,-0.03711 0.1436,0 -0.041,-0.03932 -0.5606,-0.04687 -0.057,-0.0013 -0.1133,-0.0013 -0.1699,0 -0.121,0 -0.5071,-0.03711 -1.1367,-0.03711 z m -89.2949,28.6855471 c 4e-4,14.5012909 10.8568,26.5414859 24.9004,28.3613279 0.8829,0.113386 1.7818,0.19242 2.6934,0.222657 0.042,6.89e-4 0.083,6.89e-4 0.125,0 -0.053,0 0.6133,0.03906 0.6133,0.03906 0.083,0.0027 0.1654,0.0027 0.248,0 h 24.8262 c 2.0871,-3.34e-4 3.779,-1.692187 3.7793,-3.779297 V 7.2304688 c -4e-4,-15.2133544 -12.0669,-27.4517098 -28.5732,-27.4845938 -16.5063,-0.03288 -28.6124,12.2350171 -28.6124,27.4748281 z m -60.7169,0.039063 c 0,10.5569759 6.0308,19.4318209 14.5782,24.3886719 h -10.8145 c -2.0871,3.34e-4 -3.779,1.692187 -3.7793,3.779296 0,15.755339 12.858,28.606982 28.6133,28.605469 15.7546,-0.0015 28.6028,-12.850508 28.6035,-28.605469 V 10.603516 6.5585938 c 5e-4,-0.033853 5e-4,-0.06771 0,-0.1015626 -0.4259,-15.3940157 -13.1025,-27.8070822 -29.1089,-27.2430842 -16.0064,0.563998 -28.09,12.8196139 -28.0923,28.0458191 z m 218.9395,-28.6132811 c -2.0871,3.33e-4 -3.779,1.692187 -3.7793,3.779297 v 16.550781 4.1347656 8.2812494 20.685547 c 3e-4,2.087111 1.6922,3.778963 3.7793,3.779297 h 49.6504 c 2.0871,-3.34e-4 3.779,-1.692186 3.7793,-3.779297 V 19.240234 c -3e-4,-2.08711 -1.6922,-3.778962 -3.7793,-3.779296 h -29.3203 V 13.3125 h 29.3203 c 2.0871,-3.34e-4 3.779,-1.692187 3.7793,-3.7792969 v -4.5625 c -3e-4,-2.0871101 -1.6922,-3.7789626 -3.7793,-3.7792969 h -29.3203 v -2.14843745 h 29.3203 c 2.0871,-3.3431e-4 3.779,-1.69218685 3.7793,-3.77929685 V -17.574219 c -3e-4,-2.08711 -1.6922,-3.778963 -3.7793,-3.779297 h -33.0996 z m 85.541,0 c 0,0 -5.2653,-0.0937 -11.1172,1.492187 -2.8577,0.77556 -6.3585,2.017139 -9.6406,4.695312 -3.583,2.923465 -6.5098,7.7316203 -6.5098,13.486329 0,5.7607559 2.9407,10.5681549 6.5313,13.486329 1.9226,1.562456 3.7496,1.962722 5.6484,2.738281 h -9.7519 c -2.0871,3.34e-4 -3.779,1.692187 -3.7793,3.779297 v 13.796874 c 3e-4,2.084068 1.6874,3.774663 3.7715,3.779297 l 24.7968,0.03906 c 0,0 5.2676,0.09332 11.1172,-1.492187 2.8592,-0.775559 6.3644,-2.022999 9.6465,-4.701172 3.5822,-2.923843 6.5117,-7.729099 6.5117,-13.478516 0,-5.757732 -2.94,-10.5600272 -6.5332,-13.4804681 -1.9291,-1.568126 -3.758,-1.97091267 -5.6621,-2.74609378 h 9.7676 c 2.0871,-3.343e-4 3.779,-1.69218682 3.7793,-3.77929682 V -17.535156 c -3e-4,-2.084848 -1.6887,-3.775764 -3.7735,-3.779297 z M 3198.1875,2.75 c 2.4922,3.78e-4 4.432,1.913586 4.4883,4.3925781 v 0.2070313 c -0.057,2.4789921 -1.9965,4.4003906 -4.4883,4.4003906 -2.5289,3.78e-4 -4.4961,-1.970111 -4.4961,-4.5039062 0,-2.5330394 1.9672,-4.4941407 4.4961,-4.4941407 z m 60.6855,0 c 2.5282,3.78e-4 4.4965,1.9679678 4.4961,4.4960938 v 4.4941402 h -4.4961 c -2.5277,-3.78e-4 -4.496,-1.9652584 -4.496,-4.4941402 0,-2.5277481 1.9675,-4.4960938 4.496,-4.4960938 z m -65.2265,32.177734 h 0.01 c 1.5375,0.257008 2.9305,0.921497 4.5391,0.921875 1.5719,0 2.9829,-0.521531 4.4882,-0.767578 v 0.332031 c 0,2.528504 -1.9645,4.496094 -4.4941,4.496094 -2.5289,0 -4.5039,-1.967968 -4.5039,-4.496094 0,-0.162739 -0.014,-0.325186 -0.037,-0.486328 z"
         style="color:#000000;font-style:normal;font-variant:normal;font-weight:normal;font-stretch:normal;font-size:medium;line-height:normal;font-family:sans-serif;font-variant-ligatures:normal;font-variant-position:normal;font-variant-caps:normal;font-variant-numeric:normal;font-variant-alternates:normal;font-feature-settings:normal;text-indent:0;text-align:start;text-decoration:none;text-decoration-line:none;text-decoration-style:solid;text-decoration-color:#000000;letter-spacing:normal;word-spacing:normal;text-transform:none;writing-mode:lr-tb;direction:ltr;text-orientation:mixed;dominant-baseline:auto;baseline-shift:baseline;text-anchor:start;white-space:normal;shape-padding:0;clip-rule:nonzero;display:inline;overflow:visible;visibility:visible;opacity:1;isolation:auto;mix-blend-mode:normal;color-interpolation:sRGB;color-interpolation-filters:linearRGB;solid-color:#000000;solid-opacity:1;vector-effect:none;fill:#fafdfe;fill-opacity:1;fill-rule:nonzero;stroke:none;stroke-width:7.55906;stroke-linecap:round;stroke-linejoin:round;stroke-miterlimit:4;stroke-dasharray:none;stroke-dashoffset:0;stroke-opacity:1;color-rendering:auto;image-rendering:auto;shape-rendering:auto;text-rendering:auto;enable-background:accumulate" />
    </g>
  </g>
</svg>
